<?xml version="1.0" encoding="UTF-8"?>
<svg id="_Слой_2" data-name="Слой 2" xmlns="http://www.w3.org/2000/svg" xmlns:xlink="http://www.w3.org/1999/xlink" viewBox="0 0 1080 1020">
  <defs>
    <style>
      .cls-1 {
        letter-spacing: 0em;
      }

      .cls-2 {
        fill: #e5360f;
        font-size: 170.09px;
      }

      .cls-2, .cls-3, .cls-4, .cls-5 {
        font-family: Mulish-Black, Mulish;
        font-weight: 800;
      }

      .cls-6, .cls-3, .cls-4, .cls-7, .cls-8, .cls-9, .cls-5, .cls-10 {
        fill: #030303;
      }

      .cls-11 {
        fill: #fff;
      }

      .cls-12 {
        fill: #ffefae;
      }

      .cls-13 {
        fill: #ffd400;
      }

      .cls-14 {
        fill: #858a8f;
      }

      .cls-3 {
        font-size: 38.42px;
      }

      .cls-15 {
        letter-spacing: -.02em;
      }

      .cls-4 {
        font-size: 155.36px;
      }

      .cls-16 {
        letter-spacing: 0em;
      }

      .cls-17 {
        opacity: .3;
      }

      .cls-18 {
        opacity: .6;
      }

      .cls-7 {
        font-size: 34.18px;
      }

      .cls-7, .cls-8, .cls-9, .cls-10 {
        font-family: Mulish-Bold, Mulish;
        font-weight: 700;
      }

      .cls-8 {
        font-size: 37.43px;
      }

      .cls-9 {
        font-size: 17.48px;
      }

      .cls-5 {
        font-size: 60.98px;
      }

      .cls-10 {
        font-size: 22.01px;
      }
    </style>
  </defs>
  <g id="_Слой_1-2" data-name="Слой 1">
    <g>
      <rect class="cls-11" width="1080" height="1080"/>
      <g class="cls-18 background-light">
        <path class="cls-12" d="M335.79,751.56c-5.84-3.25-11.68-6.49-17.52-9.74-34.4-20.12-62.96-43.49-90.22-72.04-5.84-6.49-11.03-12.33-16.88-18.82-.65-1.3-1.3-1.95-1.95-3.25-15.58-18.17-29.21-37-41.54-57.12-1.3,4.54-3.25,8.44-4.54,12.98-1.95,5.19-4.54,9.74-6.49,14.93-6.49,20.12-15.58,38.94-22.07,59.06,9.74,9.74,18.82,19.47,29.21,29.21,1.3,.65,2.6,1.3,3.25,1.95,12.33,12.33,25.31,22.07,39.59,32.45,1.95,1.3,4.54,2.6,6.49,3.89,29.5,20.81,60.7,37.41,92.95,49.65h168.61c-4.34-.54-8.76-1.08-13.62-1.62-44.78-7.14-85.67-20.12-125.27-41.54Z"/>
        <path class="cls-12" d="M231.68,794.72c-25.73-11.81-50.6-26.36-75.02-43.81-1.3-.65-1.3-1.95-2.6-2.6-11.03-6.49-19.47-15.58-29.86-22.72-.97,22.86-1.95,46.08-3.19,69.12h110.67Z"/>
        <path class="cls-12" d="M837.51,714.56c-18.82-2.6-37-1.3-55.17-1.3-5.84,.65-11.03,1.3-16.88,1.3-56.47,5.84-110.34,23.37-158.37,51.92,7.79-5.84,15.58-11.03,23.37-16.88,1.3-.65,1.95-.65,3.25-1.3,53.22-35.05,109.04-52.57,170.05-59.06,42.19-3.89,83.08-2.6,125.92,6.49,10.74,2.46,21.17,5.01,31.4,7.78-5.87-27.05-14.15-53.21-24.57-78.24-4.41-.36-8.84-.68-13.32-.94-38.29-1.3-74.64,.65-113.58,9.09-31.15,7.14-59.06,16.23-87.62,29.21-.65,.65-1.95,1.3-2.6,1.95-19.47,8.44-37,18.82-54.52,31.8-1.3,.65-1.95,.65-3.25,1.3-8.44,5.84-15.58,11.68-23.37,18.17-3.25,3.25-6.49,5.84-9.74,8.44-4.54,4.54-9.09,9.09-14.28,13.63-6.49,6.49-11.68,12.33-17.52,18.82,5.19-6.49,9.09-14.28,14.93-20.77,1.3-1.95,3.25-2.6,4.54-4.54,21.42-27.26,44.78-48.68,73.34-69.45,1.3-.65,1.95-.65,3.25-1.3,17.52-12.33,33.75-22.07,51.92-30.51,.65-.65,1.95-1.3,2.6-1.95,53.88-25.21,112.28-39.11,171.19-41.16-12.73-24.03-27.54-46.79-44.19-68.04-19.89,4.4-39.47,10.15-58.85,17.68-1.3,.65-2.6,0-3.89,.65-36.35,14.28-68.8,31.15-101.25,55.17-6.49,5.19-12.33,9.09-18.82,14.28-7.14,5.84-13.63,11.68-20.12,18.17-6.49,6.49-12.33,12.33-18.82,18.82-13.63,14.93-24.66,29.86-36.35,46.73-2.6,3.89-4.54,7.14-7.14,11.03-.65,1.3-.65,1.95-1.3,3.25-1.3,1.95-2.6,3.25-3.89,5.19-3.25,8.44-8.44,14.93-11.68,23.37-.65,.65-1.3,1.95-1.95,2.6-2.6,5.19-3.89,9.74-6.49,14.93,10.38-32.45,22.07-64.26,42.84-94.11,.65-1.3,.65-1.95,1.3-3.25,2.6-3.89,5.19-6.49,7.79-10.38,.65-1.3,.65-1.95,1.3-3.25,9.74-12.98,18.82-24.01,29.21-36.35,.65-.65,1.95-1.3,2.6-1.95,27.26-31.15,57.77-54.52,92.81-75.94,27.69-16.25,55.39-29.15,85.15-38.7-18.81-19.94-39.4-38.18-61.5-54.49-24.53,13.53-47.77,29.22-70.38,47.76-7.14,6.49-14.28,12.33-21.42,18.82-4.54,5.19-9.74,9.74-14.93,14.93-7.14,7.79-13.63,14.93-20.77,23.37-7.14,9.09-13.63,17.52-20.77,27.26-22.07,33.1-38.94,64.9-49.98,101.9-.65,1.95-1.95,3.89-2.6,5.84-7.14,25.31-11.68,50.63-14.93,76.59-1.3-40.24,3.89-79.83,15.58-118.78,27.46-91.72,88.06-167.66,164.26-221.68-23.76-14.29-48.93-26.48-75.24-36.32-17.74,17.59-33.59,36.63-49.43,58.09-27.26,38.94-47.38,77.24-60.36,122.02-.65,1.95-1.95,4.54-2.6,6.49-18.17,63.61-20.77,129.81-5.84,193.42-37-99.3-26.61-211.59,20.77-306.35,1.3-1.95,1.3-4.54,2.6-6.49,15.85-28.86,32.68-55.75,52.65-80.66-27.25-7.26-55.5-12.06-84.49-14.17-59.15,104.27-76.39,231.58-36.31,346.66,1.3,3.89,3.25,7.79,4.54,12.33,1.95,6.49,5.19,12.33,7.79,18.17,2.6,5.84,5.84,11.68,8.44,17.52,3.28,5.46,5.65,11.37,9.41,16.59-66.42-84.69-90.32-196.31-71.07-304.77v-3.89c4.54-23.37,9.09-44.78,17.52-66.85,.65-1.3,0-2.6,.65-3.89,3.25-9.74,6.49-18.82,11.03-27.91-29.86,7.14-59.71,15.58-89.57,24.01-11.68,54.52-12.33,110.34-3.25,166.8,4.54,25.96,11.03,49.33,19.47,73.34,8.44,23.37,19.47,44.78,31.8,66.85,2.6,3.89,5.19,7.14,7.14,11.03,9.09,13.63,17.52,24.66,27.26,37,12.98,14.93,25.96,29.86,41.54,41.54-7.79-3.25-14.28-9.74-21.42-14.93-5.19-4.54-9.74-8.44-14.93-12.33-.65-.65-1.3-1.95-1.95-2.6-11.03-9.09-20.77-18.82-29.86-29.86-.65-.65-1.95-1.3-2.6-1.95-12.33-14.93-22.72-28.56-33.75-44.78-18.17-27.91-30.51-55.17-41.54-85.03-3.25-9.09-5.84-17.52-8.44-26.61-4.54-17.52-8.44-33.75-11.03-51.92-4.54-35.7-6.49-70.75-3.25-106.44-5.84,3.25-11.03,7.14-16.88,11.03-1.3,.65-1.95,.65-3.25,1.3-2.6,1.95-5.19,3.89-7.79,5.84-1.3,.65-1.95,.65-3.25,1.3-5.19,3.89-10.38,7.14-15.58,11.03-11.03,6.49-20.77,13.63-31.15,20.12,15.58,144.09,104.5,282.34,240.15,338.8-18.82-5.19-36.35-12.33-54.52-20.12-.65-.65-1.95-1.3-2.6-1.95-113.58-53.87-191.47-164.21-219.38-284.28-19.47,24.01-38.94,48.68-58.41,72.69,18.82,38.29,40.24,75.29,69.45,107.74,.65,1.3,1.3,1.95,1.95,3.25,14.93,16.88,30.51,31.8,47.38,46.73,1.95,1.3,3.89,2.6,5.84,3.89,25.31,20.77,50.63,37.64,79.83,50.63,.65,.65,1.95,1.3,2.6,1.95,35.25,15.92,71.99,27.35,110.23,32.13h121.94c-4.9-.63-9.81-1.18-14.73-1.62,16.1-.49,32.15,.06,48.08,1.62h171c-70.66-26.31-147.75-33-221.68-15.25,75.94-28.56,158.37-28.56,237.55-6.49,1.95,.65,4.54,1.95,6.49,2.6,17.82,5.04,34.72,11.47,51.24,19.15h61.94c-.23-16.64-1.35-33.06-3.31-49.22-39.49-15.89-81.08-26.54-124.15-30.94h-6.49Z"/>
      </g>
      <text class="cls-7" transform="translate(640.22 221.08)"><tspan x="0" y="0">Клуб настольных игр</tspan></text>
      <text class="cls-7" transform="translate(78.18 221.08)"><tspan x="0" y="0">Туран 40/2</tspan></text>
      <g class="shedule">
        <g class="cls-17">
          <rect class="cls-14" x="102.19" y="961.81" width="258.57" height="37.75" rx="12.66" ry="12.66"/>
          <polygon class="cls-14" points="239.91 963.47 228.99 952.55 218.06 963.47 239.91 963.47"/>
        </g>
        <g class="cls-17">
          <rect class="cls-14" x="426.21" y="961.81" width="258.57" height="37.75" rx="12.66" ry="12.66"/>
          <polygon class="cls-14" points="563.93 963.47 553 952.55 542.08 963.47 563.93 963.47"/>
        </g>
        <g class="cls-17">
          <rect class="cls-14" x="734.68" y="961.81" width="258.57" height="37.75" rx="12.66" ry="12.66"/>
          <polygon class="cls-14" points="872.4 963.47 861.48 952.55 850.55 963.47 872.4 963.47"/>
        </g>
        <g>
          <g>
            <text class="cls-3" transform="translate(110.62 941.7)"><tspan x="0" y="0">16:00 – 00:00</tspan></text>
            <text class="cls-10" transform="translate(86.75 900.02)"><tspan x="0" y="0">Вторник, Четверг, Пятница</tspan></text>
          </g>
          <g>
            <text class="cls-10" transform="translate(513.49 900.02)"><tspan x="0" y="0">Суббота</tspan></text>
            <text class="cls-3" transform="translate(434.53 941.7)"><tspan x="0" y="0">12:00 – 01:00</tspan></text>
          </g>
          <g>
            <text class="cls-10" transform="translate(792.57 900.02)"><tspan x="0" y="0">Воскресение</tspan></text>
            <text class="cls-3" transform="translate(739.34 941.7)"><tspan x="0" y="0">16:00 – 00:00</tspan></text>
          </g>
        </g>
        <text class="cls-10" transform="translate(145.36 987.3)"><tspan x="0" y="0">Вход 2500 тенге</tspan></text>
        <text class="cls-10" transform="translate(465.8 987.3)"><tspan x="0" y="0">Вход 3500 тенге</tspan></text>
        <text class="cls-10" transform="translate(774.27 987.3)"><tspan x="0" y="0">Вход 3500 тенге</tspan></text>
      </g>
      <g class="star star__collection">
        <polygon class="cls-13" points="896.36 499.11 834 472.64 767.2 483.83 773.1 416.36 741.81 356.28 807.81 341.04 855.28 292.72 890.17 350.78 950.8 380.99 906.36 432.12 896.36 499.11"/>
        <text class="cls-5" transform="translate(769.08 403.2) rotate(8.82)"><tspan x="0" y="0">350+</tspan></text>
        <text class="cls-8" transform="translate(803.15 443.52) rotate(8.82)"><tspan x="0" y="0">игр</tspan></text>
      </g>
      <g class="star star__description">
        <polygon class="cls-13" points="228.4 527.65 160.93 521.72 100.84 552.98 85.62 486.98 37.32 439.49 95.39 404.62 125.63 344.01 176.73 388.47 243.72 398.49 217.24 460.84 228.4 527.65"/>
        <g>
          <path class="cls-6" d="M82.89,449.26l2.4-7.09,.24,1.1-11.35-12.72,3.84-.62,8.77,9.95-.7,.11,4.03-12.01,3.7-.6-7.19,21.28-3.73,.6Z"/>
          <path class="cls-6" d="M97.91,450.55l-1.01-6.26,1.61-.26c.42-.96,.65-2.05,.71-3.27,.06-1.22-.05-2.68-.32-4.39l-.65-4.01,10.82-1.74,1.84,11.41,2.28-.37,1.01,6.26-2.95,.48-.58-3.62-10.4,1.68,.58,3.62-2.95,.48Zm3.72-6.99l6.04-.97-1.42-8.82-4.62,.74,.35,2.17c.2,1.24,.28,2.48,.23,3.7-.05,1.23-.24,2.28-.57,3.17Z"/>
          <path class="cls-6" d="M122.68,443.13c-1.45,.23-2.75,.14-3.9-.29-1.15-.42-2.11-1.13-2.87-2.13s-1.26-2.25-1.5-3.75-.16-2.84,.25-4.02c.41-1.18,1.09-2.15,2.06-2.92,.96-.76,2.17-1.26,3.61-1.5,1.45-.23,2.75-.14,3.91,.28,1.16,.42,2.12,1.13,2.88,2.12,.76,.99,1.26,2.24,1.5,3.74s.16,2.85-.25,4.03c-.41,1.19-1.1,2.17-2.07,2.93-.97,.77-2.18,1.27-3.63,1.5Zm-.43-2.67c1.09-.18,1.9-.7,2.43-1.57,.52-.87,.66-2.09,.41-3.65-.25-1.56-.76-2.66-1.53-3.32-.77-.66-1.7-.89-2.8-.72-1.09,.18-1.9,.7-2.43,1.56-.53,.87-.66,2.08-.41,3.63,.25,1.56,.76,2.67,1.54,3.33,.77,.66,1.71,.91,2.8,.73Z"/>
          <path class="cls-6" d="M139.68,440.39c-2.21,.36-4.07-.03-5.59-1.15-1.52-1.12-2.49-2.98-2.91-5.55l-.39-2.39c-.43-2.65-.17-4.88,.78-6.69,.95-1.81,2.59-3.17,4.94-4.08l4.96-2,1.39,2.57-5.58,2.21c-.93,.36-1.67,.87-2.21,1.54-.54,.67-.9,1.42-1.09,2.25-.19,.83-.21,1.69-.07,2.58l.24,1.48-.47,.08c.07-.87,.29-1.65,.68-2.35,.38-.7,.92-1.28,1.6-1.76,.68-.47,1.5-.78,2.45-.94,1.19-.19,2.27-.09,3.26,.32,.99,.4,1.82,1.08,2.51,2.02,.69,.95,1.14,2.13,1.37,3.56,.24,1.47,.15,2.78-.26,3.95-.41,1.17-1.09,2.13-2.05,2.88-.95,.75-2.13,1.24-3.54,1.47Zm-.54-2.62c1.15-.19,1.99-.7,2.51-1.53,.52-.84,.66-1.99,.43-3.45-.23-1.43-.73-2.46-1.5-3.11-.77-.65-1.72-.88-2.85-.7-1.13,.18-1.96,.7-2.49,1.54-.53,.85-.68,1.96-.46,3.33,.24,1.5,.75,2.58,1.52,3.22s1.72,.88,2.85,.7Z"/>
          <path class="cls-6" d="M149.92,438.45l-2.26-14.05,3.45-.56,.89,5.51,6.34-1.02-.89-5.51,3.45-.56,2.26,14.05-3.45,.56-.95-5.87-6.34,1.02,.95,5.87-3.45,.56Z"/>
          <path class="cls-6" d="M167.11,435.68l-2.26-14.05,3.45-.56,.76,4.7,3.7-.6c1.87-.3,3.35-.13,4.42,.5,1.07,.64,1.73,1.7,1.97,3.18,.16,.96,.07,1.84-.26,2.62-.33,.79-.89,1.44-1.67,1.97-.78,.53-1.77,.88-2.95,1.08l-7.15,1.15Zm3.08-2.84l3.23-.52c.95-.15,1.64-.47,2.07-.95s.59-1.13,.46-1.94c-.13-.82-.47-1.37-1.03-1.67-.55-.3-1.31-.37-2.28-.22l-3.23,.52,.77,4.78Zm11.47,.49l-2.26-14.05,3.45-.56,2.26,14.05-3.45,.56Z"/>
          <path class="cls-6" d="M196,431.31c-2.36,.38-4.31,.03-5.85-1.05-1.54-1.08-2.5-2.76-2.86-5.02-.24-1.46-.16-2.79,.24-3.98,.4-1.19,1.06-2.17,1.99-2.95,.93-.78,2.08-1.28,3.45-1.5,1.35-.22,2.53-.11,3.53,.31,1,.43,1.82,1.12,2.46,2.09,.64,.96,1.07,2.14,1.3,3.53l.15,.92-10.24,1.65-.3-1.83,7.76-1.25-.41,.47c-.21-1.3-.64-2.25-1.3-2.84-.66-.6-1.51-.81-2.54-.65-1.15,.19-1.97,.74-2.46,1.65-.49,.92-.62,2.11-.38,3.57l.06,.36c.25,1.52,.8,2.6,1.68,3.23s1.99,.83,3.37,.61c.8-.13,1.53-.36,2.19-.68,.66-.33,1.27-.78,1.82-1.36l1.41,2.17c-.58,.65-1.31,1.19-2.19,1.64-.88,.45-1.84,.75-2.88,.92Z"/>
          <path class="cls-6" d="M206.51,433.12l-1.6-.88c.49-.71,.82-1.34,.96-1.91,.15-.57,.17-1.14,.08-1.74l.88,.69-2.61,.42-.62-3.87,3.89-.63,.41,2.56c.15,.95,.13,1.84-.07,2.68-.2,.84-.64,1.73-1.32,2.68Z"/>
          <path class="cls-6" d="M96.45,481.6c-2.21,.36-4.07-.03-5.59-1.15-1.52-1.12-2.49-2.97-2.91-5.55l-.39-2.39c-.43-2.65-.17-4.88,.78-6.69,.94-1.81,2.59-3.17,4.94-4.08l4.96-2,1.39,2.57-5.58,2.21c-.93,.36-1.67,.87-2.21,1.54-.54,.67-.9,1.42-1.09,2.25-.19,.83-.21,1.69-.07,2.58l.24,1.47-.47,.08c.07-.87,.3-1.65,.68-2.35,.38-.7,.92-1.28,1.6-1.76,.68-.47,1.5-.78,2.45-.94,1.19-.19,2.27-.08,3.26,.32,.99,.4,1.82,1.08,2.51,2.02,.68,.95,1.14,2.13,1.37,3.56,.24,1.46,.15,2.78-.26,3.95-.41,1.17-1.09,2.13-2.05,2.88s-2.14,1.24-3.54,1.47Zm-.54-2.62c1.15-.19,1.99-.7,2.51-1.53,.52-.83,.66-1.99,.43-3.45-.23-1.43-.73-2.46-1.5-3.11-.77-.65-1.72-.88-2.85-.7-1.13,.18-1.96,.7-2.49,1.54-.53,.85-.68,1.96-.46,3.33,.24,1.5,.75,2.58,1.52,3.22,.77,.65,1.72,.88,2.85,.7Z"/>
          <path class="cls-6" d="M113.2,478.9c-1.45,.23-2.75,.14-3.9-.29-1.15-.42-2.11-1.13-2.87-2.13-.76-1-1.26-2.25-1.5-3.75s-.16-2.84,.25-4.02c.41-1.18,1.09-2.15,2.06-2.91,.96-.76,2.17-1.26,3.61-1.5,1.45-.23,2.75-.14,3.91,.28,1.16,.42,2.12,1.13,2.88,2.12,.76,.99,1.26,2.24,1.5,3.74s.16,2.85-.25,4.04c-.41,1.19-1.1,2.16-2.07,2.93-.97,.77-2.18,1.27-3.63,1.5Zm-.43-2.67c1.09-.18,1.9-.7,2.43-1.58s.66-2.09,.41-3.65c-.25-1.56-.76-2.66-1.53-3.32-.77-.66-1.7-.89-2.8-.72-1.09,.18-1.9,.7-2.43,1.56-.53,.87-.66,2.08-.41,3.63,.25,1.56,.76,2.67,1.54,3.33,.77,.67,1.71,.91,2.8,.73Z"/>
          <path class="cls-6" d="M122.98,477.44l-1.52-2.55c.58-.32,1.04-.7,1.4-1.12,.36-.43,.62-.95,.78-1.55,.16-.61,.23-1.34,.2-2.2-.02-.86-.13-1.88-.32-3.04l-.69-4.31,11.18-1.8,2.26,14.05-3.45,.56-1.83-11.38-4.56,.74,.28,1.75c.33,2.02,.41,3.74,.26,5.17-.15,1.42-.55,2.6-1.2,3.52-.65,.92-1.58,1.65-2.79,2.19Z"/>
          <path class="cls-6" d="M140.22,474.26l-2.26-14.05,3.45-.56,.76,4.7,3.7-.6c1.87-.3,3.35-.13,4.42,.5,1.07,.64,1.73,1.7,1.97,3.18,.16,.96,.07,1.84-.26,2.62-.33,.79-.89,1.44-1.67,1.97-.78,.53-1.77,.88-2.95,1.07l-7.15,1.15Zm3.08-2.84l3.23-.52c.95-.15,1.64-.47,2.07-.95,.44-.48,.59-1.13,.46-1.94-.13-.82-.47-1.37-1.03-1.67-.55-.3-1.31-.37-2.28-.22l-3.23,.52,.77,4.78Z"/>
          <path class="cls-6" d="M155.9,471.73l-2.26-14.05,3.25-.53,1.83,11.38,4.95-.8-1.83-11.38,3.23-.52,1.83,11.38,4.95-.8-1.83-11.38,3.25-.52,2.26,14.05-19.64,3.17Z"/>
          <path class="cls-6" d="M179.49,467.93l-2.26-14.05,3.14-.51,1.71,10.63-.83,.13,6.27-11.91,2.86-.46,2.26,14.05-3.14,.51-1.72-10.65,.86-.14-6.29,11.94-2.86,.46Z"/>
          <path class="cls-6" d="M203.54,464.34c-2.36,.38-4.31,.03-5.85-1.06-1.54-1.08-2.5-2.75-2.86-5.02-.24-1.47-.15-2.79,.24-3.98,.4-1.19,1.06-2.17,1.99-2.95,.93-.78,2.08-1.28,3.45-1.5,1.35-.22,2.53-.11,3.53,.31,1,.43,1.82,1.12,2.46,2.09,.64,.96,1.07,2.14,1.3,3.53l.15,.92-10.24,1.65-.3-1.84,7.76-1.25-.41,.47c-.21-1.3-.64-2.25-1.3-2.84-.66-.6-1.51-.81-2.54-.65-1.15,.19-1.97,.74-2.46,1.65-.49,.92-.62,2.11-.38,3.57l.06,.36c.25,1.52,.8,2.6,1.68,3.23s1.99,.83,3.37,.61c.8-.13,1.53-.36,2.19-.68,.66-.33,1.27-.78,1.82-1.36l1.41,2.17c-.58,.65-1.31,1.19-2.19,1.64-.88,.45-1.84,.75-2.88,.92Z"/>
          <path class="cls-6" d="M121.42,511.82c-1.45,.23-2.76,.14-3.94-.28-1.18-.42-2.16-1.13-2.93-2.14s-1.28-2.27-1.52-3.79-.15-2.87,.28-4.04c.43-1.17,1.14-2.13,2.12-2.88,.98-.75,2.2-1.24,3.64-1.47,.93-.15,1.85-.15,2.78,0,.93,.15,1.71,.44,2.36,.89l-.67,2.59c-.58-.38-1.19-.64-1.85-.77-.66-.13-1.28-.15-1.88-.05-1.24,.2-2.15,.75-2.72,1.64-.57,.89-.74,2.08-.5,3.56,.24,1.48,.77,2.57,1.59,3.25,.82,.69,1.86,.93,3.1,.73,.57-.09,1.15-.3,1.74-.62,.58-.32,1.1-.76,1.54-1.31l1.44,2.22c-.49,.63-1.15,1.16-1.98,1.6-.83,.44-1.7,.73-2.61,.88Z"/>
          <path class="cls-6" d="M132.25,509.79l-1.83-11.32-4.81,.78-.44-2.73,13.1-2.11,.44,2.73-4.84,.78,1.83,11.32-3.45,.56Z"/>
          <path class="cls-6" d="M149.04,507.37c-1.45,.23-2.75,.14-3.9-.29-1.15-.42-2.11-1.13-2.87-2.13-.76-1-1.26-2.25-1.5-3.75s-.16-2.84,.25-4.02c.41-1.18,1.09-2.15,2.06-2.91,.96-.76,2.17-1.26,3.61-1.5,1.45-.23,2.75-.14,3.91,.28,1.16,.42,2.12,1.13,2.88,2.12,.76,.99,1.26,2.24,1.5,3.74s.16,2.85-.25,4.03c-.41,1.19-1.1,2.17-2.07,2.93-.97,.77-2.18,1.27-3.63,1.5Zm-.43-2.67c1.09-.18,1.9-.7,2.43-1.58,.52-.87,.66-2.09,.41-3.65-.25-1.56-.76-2.66-1.53-3.32-.77-.66-1.7-.89-2.8-.72-1.09,.18-1.9,.7-2.43,1.56-.53,.87-.66,2.08-.41,3.63,.25,1.56,.76,2.67,1.54,3.33,.77,.67,1.71,.91,2.8,.73Z"/>
          <path class="cls-6" d="M158.82,505.91l-1.52-2.55c.58-.32,1.04-.7,1.4-1.13,.36-.43,.62-.95,.78-1.55,.16-.61,.23-1.34,.2-2.2-.02-.86-.13-1.88-.32-3.05l-.7-4.31,11.18-1.8,2.26,14.05-3.45,.56-1.83-11.38-4.56,.74,.28,1.75c.33,2.02,.41,3.74,.26,5.17-.15,1.42-.55,2.6-1.2,3.52-.65,.92-1.58,1.65-2.79,2.19Z"/>
          <path class="cls-6" d="M176.06,502.73l-2.26-14.05,3.45-.56,.76,4.7,3.7-.6c1.87-.3,3.35-.13,4.42,.5s1.73,1.7,1.97,3.18c.16,.96,.07,1.84-.26,2.62s-.89,1.44-1.67,1.97c-.78,.53-1.76,.88-2.95,1.08l-7.15,1.15Zm3.08-2.84l3.23-.52c.95-.15,1.64-.47,2.07-.95,.44-.48,.59-1.13,.46-1.94-.13-.82-.47-1.37-1.03-1.67-.55-.3-1.31-.37-2.28-.22l-3.23,.52,.77,4.78Zm11.47,.49l-2.26-14.05,3.45-.56,2.26,14.05-3.45,.56Z"/>
        </g>
      </g>
      <g class="star star__lottery">
        <polygon class="cls-13" points="1013.89 735.57 946.41 729.65 886.32 760.91 871.1 694.91 822.8 647.42 880.87 612.55 911.11 551.94 962.22 596.39 1029.21 606.42 1002.72 668.76 1013.89 735.57"/>
          hjpjd
        <text class="cls-10" transform="translate(875 670) rotate(-13)"><tspan x="0" y="0">Розыгрыши</tspan><tspan x="22" y="28">призов</tspan></text>
      </g>
      <g class="star star__benefits">
        <polygon class="cls-13" points="294.02 773.41 248.18 748.35 196.06 751.85 205.73 700.51 186.3 652.02 238.12 645.36 278.23 611.9 300.58 659.11 344.8 686.92 306.8 722.76 294.02 773.41"/>
        <text class="cls-9" transform="translate(204.56 674.98) rotate(14.49)"><tspan x="0" y="0">БЕСПЛАТНО:</tspan><tspan x="12.27" y="20.98">чай, кофе,</tspan><tspan x="22.19" y="41.96">печенье</tspan></text>
      </g>
      <g class="small-stars">
        <polygon class="cls-13" points="117.33 649.26 104.29 643.11 90 644.94 91.81 630.64 85.65 617.61 99.81 614.92 110.3 605.04 117.24 617.67 129.88 624.59 120.01 635.1 117.33 649.26"/>
        <polygon class="cls-13" points="1006.62 475.02 993.59 468.88 979.29 470.7 981.1 456.41 974.95 443.38 989.11 440.68 999.6 430.8 1006.53 443.43 1019.17 450.36 1009.3 460.86 1006.62 475.02"/>
        <polygon class="cls-13" points="772.39 592.83 764.34 591.53 756.86 594.76 755.61 586.71 750.23 580.59 757.5 576.92 761.66 569.91 767.4 575.69 775.35 577.47 771.63 584.72 772.39 592.83"/>
        <polygon class="cls-13" points="231.47 330.72 223.42 329.42 215.94 332.65 214.69 324.6 209.32 318.48 216.59 314.8 220.74 307.8 226.48 313.58 234.43 315.36 230.71 322.61 231.47 330.72"/>
      </g>
      <g class="title">
        <text class="cls-4" transform="translate(539.64 173.97)"><tspan x="0" y="0">M</tspan><tspan class="cls-15" x="137.34" y="0">O</tspan><tspan x="259.45" y="0">VE</tspan></text>
        <text class="cls-2" transform="translate(448.47 175.9)"><tspan x="0" y="0">&amp;</tspan></text>
      <text class="cls-4" transform="translate(70.86 173.97)"><tspan class="cls-16" x="0" y="0">R</tspan><tspan class="cls-1" x="110.15" y="0">OLL</tspan></text>
      </g>
    </g>
  </g>
</svg>