<?xml version="1.0" standalone="no"?>
<!DOCTYPE svg PUBLIC "-//W3C//DTD SVG 20010904//EN" "http://www.w3.org/TR/2001/REC-SVG-20010904/DTD/svg10.dtd">
<svg version="1.0" xmlns="http://www.w3.org/2000/svg" width="300.000000pt" height="305.000000pt"
    viewBox="0 0 300.000000 305.000000" preserveAspectRatio="xMidYMid meet">
    <g transform="translate(0.000000,305.000000) scale(0.100000,-0.100000)" fill="#000000" stroke="none">
        <path d="M1409 2780 c-217 -125 -811 -461 -846 -479 l-43 -21 0 -484 0 -484
152 -85 c84 -47 254 -142 378 -212 124 -71 269 -152 322 -181 l98 -54 162 94
c90 51 231 130 313 176 83 45 221 123 308 172 l157 90 0 481 0 482 -193 109
c-105 61 -237 136 -291 169 -100 59 -294 173 -397 232 l-56 32 -64 -37z m261
-145 c107 -63 304 -177 437 -253 l242 -137 1 -450 0 -450 -47 -29 c-44 -26
-594 -337 -757 -428 -38 -21 -72 -38 -76 -38 -7 0 -67 32 -320 173 -30 17
-127 71 -215 122 -88 50 -204 116 -257 146 l-98 54 0 450 1 450 246 140 c135
77 334 190 442 252 108 61 198 112 201 112 3 0 93 -51 200 -114z" />
        <path d="M1413 2412 c-29 -64 -80 -180 -114 -257 -34 -77 -65 -144 -69 -148
-7 -8 -238 41 -480 102 -63 16 -117 27 -119 25 -6 -5 46 -124 152 -349 80
-172 167 -381 167 -404 0 -6 9 -11 21 -11 29 0 204 -37 339 -71 131 -34 178
-37 235 -16 32 11 197 48 413 93 13 2 25 12 29 22 13 40 120 289 190 442 41
91 88 194 104 229 16 35 27 66 25 68 -4 5 -148 -30 -381 -91 -71 -18 -148 -37
-171 -40 l-41 -7 -27 63 c-55 129 -211 468 -216 468 -3 0 -28 -53 -57 -118z
m77 -2 c9 -16 8 -22 -6 -27 -18 -7 -35 13 -27 34 7 19 21 16 33 -7z m-42 -356
c0 -179 -2 -324 -6 -322 -117 57 -222 115 -222 124 0 7 40 101 88 211 49 109
99 224 112 256 13 31 25 57 26 57 1 0 2 -147 2 -326z m137 116 c48 -107 101
-222 117 -254 15 -33 25 -63 21 -67 -10 -9 -220 -119 -227 -119 -3 0 -6 145
-6 322 0 177 2 319 3 317 2 -2 43 -92 92 -199z m-742 -187 c115 -64 538 -275
566 -282 23 -7 20 -9 -30 -35 -30 -16 -114 -62 -187 -102 -73 -41 -135 -74
-139 -74 -3 0 -21 -11 -40 -26 -23 -17 -33 -21 -33 -11 0 19 -102 250 -194
437 -42 85 -76 159 -76 164 0 4 12 0 28 -10 15 -10 62 -37 105 -61z m52 47
c132 -39 170 -49 240 -61 39 -7 71 -13 73 -14 2 -2 -23 -62 -34 -83 -3 -4
-374 179 -374 185 0 3 6 2 13 -1 6 -2 44 -14 82 -26z m1245 25 c0 -3 -21 -15
-47 -26 -97 -41 -249 -114 -284 -135 l-36 -22 -20 42 -21 42 89 18 c49 10 138
33 197 51 117 36 122 38 122 30z m71 -32 c-50 -99 -143 -302 -196 -428 -33
-77 -60 -142 -62 -144 -1 -2 -8 1 -15 7 -24 19 -191 112 -305 170 -62 31 -113
59 -113 62 1 3 131 70 291 150 159 80 315 162 347 182 31 20 60 37 64 37 4 1
-1 -16 -11 -36z m-726 -333 c0 -13 -6 -25 -12 -27 -16 -6 -27 21 -19 43 9 23
31 11 31 -16z m-38 -366 c-1 -2 -36 6 -77 16 -41 11 -135 32 -207 47 -73 15
-133 30 -133 34 0 4 13 12 29 17 27 10 272 143 351 191 l35 21 3 -161 c1 -89
1 -163 -1 -165z m81 307 c15 -10 65 -39 112 -64 47 -25 119 -64 160 -87 41
-23 86 -46 100 -52 22 -9 12 -13 -75 -28 -85 -15 -284 -63 -322 -77 -8 -3 -11
40 -10 161 0 91 2 166 5 166 2 0 16 -9 30 -19z" />
        <path d="M1561 2129 c-1 -21 53 -245 67 -279 9 -21 11 -22 11 -5 0 25 -77 306
-78 284z" />
        <path d="M1978 1850 c-40 -32 -95 -79 -123 -104 l-50 -45 22 -22 c22 -22 22
-22 17 -2 -6 21 11 40 176 191 66 61 42 51 -42 -18z" />
        <path d="M1879 1594 c39 -74 80 -126 81 -103 0 9 -7 19 -15 22 -8 4 -28 33
-44 66 -17 33 -36 63 -42 67 -6 4 2 -20 20 -52z" />
        <path d="M1945 1583 c7 -31 22 -50 31 -41 6 7 -23 68 -32 68 -4 0 -3 -12 1
-27z" />
        <path d="M1296 1488 c40 -46 76 -82 68 -68 -16 30 -68 90 -77 90 -6 0 -2 -10
9 -22z" />
        <path d="M1632 1454 c-91 -81 -97 -107 -8 -33 42 35 76 69 76 76 0 7 -1 13 -2
13 -2 0 -31 -25 -66 -56z" />
        <path d="M770 1370 c0 -18 7 -20 63 -20 68 0 79 4 70 26 -4 10 -23 14 -69 14
-57 0 -64 -2 -64 -20z" />
        <path d="M2034 1379 c-11 -19 9 -25 74 -21 45 3 62 8 62 18 0 11 -16 14 -64
14 -36 0 -68 -5 -72 -11z" />
        <path d="M1877 1284 c-4 -4 -7 -13 -7 -21 0 -10 18 -13 70 -13 56 0 70 3 70
15 0 11 -12 15 -49 15 -27 0 -56 2 -63 5 -8 3 -17 2 -21 -1z" />
        <path d="M920 1265 c0 -11 13 -15 50 -17 28 -1 58 -2 67 -2 10 -1 19 7 21 17
3 15 -5 17 -67 17 -56 0 -71 -3 -71 -15z" />
        <path d="M1115 1270 c-11 -17 5 -30 36 -30 22 0 29 5 29 20 0 15 -7 20 -29 20
-17 0 -33 -4 -36 -10z" />
        <path d="M1225 1270 c-10 -17 5 -30 33 -30 34 0 57 14 48 29 -9 14 -73 15 -81
1z" />
        <path d="M1626 1272 c-10 -16 10 -30 37 -25 37 7 35 33 -2 33 -17 0 -32 -4
-35 -8z" />
        <path d="M1753 1268 c2 -7 14 -13 27 -13 13 0 25 6 28 13 2 8 -7 12 -28 12
-21 0 -30 -4 -27 -12z" />
        <path d="M1364 1181 c-2 -2 -4 -10 -4 -18 0 -10 25 -13 111 -13 95 0 110 2
107 16 -2 13 -21 16 -106 17 -57 1 -106 0 -108 -2z" />
        <path d="M1117 1174 c-19 -19 1 -25 86 -22 55 2 91 7 90 13 -3 11 -165 19
-176 9z" />
        <path d="M1640 1166 c0 -18 157 -27 171 -10 16 19 -2 24 -88 24 -65 0 -83 -3
-83 -14z" />
        <path d="M1234 1081 c-2 -2 -4 -10 -4 -18 0 -9 16 -13 56 -13 47 0 55 3 52 17
-2 13 -14 17 -51 18 -26 0 -50 -1 -53 -4z" />
        <path d="M1400 1065 c0 -12 15 -15 75 -15 60 0 75 3 75 15 0 12 -15 15 -75 15
-60 0 -75 -3 -75 -15z" />
        <path d="M1610 1065 c0 -11 12 -15 50 -15 38 0 50 4 50 15 0 11 -12 15 -50 15
-38 0 -50 -4 -50 -15z" />
        <path d="M1405 969 c-11 -17 1 -22 69 -23 43 -1 67 3 70 10 3 7 2 15 -1 18
-11 11 -132 6 -138 -5z" />
        <path d="M230 524 l0 -117 38 7 c20 3 49 6 65 6 52 0 89 69 53 99 -11 9 -12
18 -2 42 10 28 9 33 -17 55 -22 19 -39 24 -83 24 l-54 0 0 -116z m110 46 c0
-16 -7 -20 -30 -20 -23 0 -30 4 -30 20 0 16 7 20 30 20 23 0 30 -4 30 -20z
m-6 -66 c35 -14 7 -43 -41 -44 -20 0 -15 38 5 43 9 3 18 5 19 6 1 0 8 -2 17
-5z" />
        <path d="M510 622 c-66 -33 -80 -109 -30 -166 38 -42 76 -52 124 -32 37 16 76
67 76 101 0 49 -68 115 -117 115 -10 0 -34 -8 -53 -18z m90 -50 c25 -20 30
-63 10 -87 -17 -20 -69 -19 -92 2 -24 22 -23 52 4 80 26 28 48 29 78 5z" />
        <path d="M765 538 c-26 -57 -50 -108 -52 -115 -9 -24 55 -10 66 15 8 17 19 22
51 22 33 0 42 -4 50 -24 7 -18 14 -22 34 -19 l25 5 -36 77 c-19 42 -41 91 -49
109 -8 17 -20 32 -28 32 -7 0 -35 -46 -61 -102z m63 -36 c-27 -5 -30 1 -17 34
l11 29 13 -30 c12 -27 12 -30 -7 -33z" />
        <path d="M997 633 c-2 -5 -5 -57 -6 -116 l-2 -108 28 3 c26 3 28 6 25 41 -4
53 11 50 60 -14 7 -10 23 -20 36 -24 29 -9 28 11 -3 49 l-23 29 21 17 c26 22
27 75 1 99 -20 19 -129 38 -137 24z m98 -73 c0 -20 -6 -26 -27 -28 -24 -3 -28
0 -28 21 0 30 9 39 35 35 14 -2 20 -10 20 -28z" />
        <path d="M1220 529 l0 -114 65 5 c56 5 69 10 97 37 21 22 31 41 31 62 0 68
-45 108 -133 118 l-60 6 0 -114z m127 40 c18 -15 17 -64 -3 -83 -8 -9 -29 -16
-45 -16 -29 0 -29 0 -29 61 l0 62 32 -7 c17 -3 37 -11 45 -17z" />
        <path d="M1603 620 c-38 -23 -53 -48 -53 -90 0 -95 97 -146 178 -94 17 11 22
24 22 58 l0 44 -45 4 c-41 3 -45 1 -45 -19 0 -16 6 -23 20 -23 26 0 26 -27 0
-35 -20 -6 -59 9 -72 29 -35 52 43 128 82 81 12 -14 16 -13 37 7 l24 22 -33
18 c-43 23 -76 22 -115 -2z" />
        <path d="M1859 573 c-17 -38 -39 -87 -49 -109 l-18 -42 28 -4 c23 -4 30 0 32
16 4 28 88 34 95 6 5 -20 63 -34 63 -16 0 24 -96 216 -108 216 -7 0 -27 -30
-43 -67z m56 -43 c20 -38 19 -38 -11 -36 -20 1 -24 5 -20 21 3 11 6 26 6 33 0
20 8 14 25 -18z" />
        <path d="M2070 593 c0 -27 -3 -78 -7 -115 l-6 -68 33 0 33 0 -7 55 c-3 30 -2
55 2 55 5 0 18 -18 31 -40 21 -38 41 -52 41 -30 0 14 43 80 53 80 4 0 7 -10 6
-22 -1 -13 -1 -39 -1 -58 2 -31 5 -35 28 -35 l26 0 -7 110 c-4 61 -9 112 -11
114 -6 7 -50 -38 -76 -75 -13 -19 -25 -34 -28 -34 -3 0 -25 25 -50 55 -25 30
-48 55 -52 55 -5 0 -8 -21 -8 -47z" />
        <path d="M2370 528 l0 -108 75 0 c73 0 75 1 75 25 0 23 -3 25 -50 25 -38 0
-50 4 -50 15 0 11 11 15 40 15 36 0 40 3 40 25 0 23 -4 25 -40 25 -33 0 -40 3
-40 20 0 17 6 19 45 17 30 -2 45 1 45 9 0 7 2 18 5 26 4 11 -10 14 -70 14
l-75 0 0 -108z" />
        <path d="M2608 624 c-55 -30 -40 -108 23 -121 35 -7 46 -20 30 -36 -9 -9 -19
-8 -40 4 -27 16 -29 16 -45 -3 -10 -11 -16 -21 -14 -23 2 -1 18 -10 37 -20 59
-30 121 2 121 62 0 32 -4 36 -50 56 -27 11 -50 25 -50 29 0 15 32 22 50 10 13
-8 21 -6 34 9 21 25 21 25 -15 38 -40 14 -48 13 -81 -5z" />
        <path d="M1446 261 c-21 -23 -18 -49 7 -65 21 -13 50 2 55 28 4 17 -23 56 -38
56 -4 0 -15 -9 -24 -19z" />
        <path d="M1111 256 c-17 -20 -2 -48 23 -44 24 3 34 37 14 49 -18 12 -24 11
-37 -5z" />
        <path d="M1660 240 c0 -27 3 -31 23 -28 16 2 22 10 22 28 0 18 -6 26 -22 28
-20 3 -23 -1 -23 -28z" />
        <path d="M1780 255 c-11 -13 -11 -19 3 -32 21 -21 49 -9 45 19 -4 28 -30 35
-48 13z" />
        <path d="M1224 249 c-9 -15 11 -33 30 -26 9 4 13 13 10 22 -7 17 -30 20 -40 4z" />
        <path d="M1305 250 c-7 -11 12 -50 24 -50 15 0 33 29 27 45 -6 17 -41 20 -51
5z" />
        <path d="M1577 247 c-3 -8 -2 -20 3 -27 11 -18 42 -4 38 17 -4 22 -34 29 -41
10z" />
    </g>
</svg>