<svg width="256" height="256" viewBox="40 40 256 256" fill="none" xmlns="http://www.w3.org/2000/svg">
    <g filter="url(#filter0_d_1008_36)">
        <g filter="url(#filter1_d_1008_36)">
            <path fill-rule="evenodd" clip-rule="evenodd"
                d="M181.618 89.1586C181.555 89.2007 181.489 89.2398 181.421 89.2754C177.855 91.1249 172.355 91.778 168.75 91.778C165.056 91.778 161.36 91.5801 157.737 91.3861L157.733 91.3859L157.733 91.3859C154.345 91.2045 151.02 91.0264 147.732 91.0027C147.143 92.1131 146.536 93.2196 145.93 94.3229C144.47 96.9837 143.02 99.6255 141.86 102.257C143.563 102.755 145.335 103.812 146.805 104.797C148.127 105.684 149.443 106.685 150.47 107.465C150.872 107.771 151.23 108.043 151.527 108.261C154.089 110.147 156.117 112.843 157.926 115.316C158.065 115.506 158.202 115.695 158.339 115.882C160.055 118.233 161.606 120.36 163.411 121.954C165.935 124.183 168.154 127.769 169.872 130.545L169.872 130.545C170.102 130.917 170.324 131.275 170.536 131.613C173.969 137.088 176.347 142.067 178.377 148.264C179.725 152.379 180.481 157.735 180.788 161.963C180.909 163.645 181.089 165.413 181.273 167.222L181.273 167.223C181.629 170.717 182 174.367 182 177.85V212.505C182 217.819 181.749 223.199 181.478 228.541C181.451 229.075 181.424 229.608 181.396 230.14C181.15 234.956 180.906 239.732 180.825 244.457C180.756 248.501 180.497 252.463 180.242 256.365L180.178 257.336C179.928 261.182 179.697 264.979 179.657 268.832C182.051 268.733 184.537 268.493 187.081 268.247L187.081 268.247L187.844 268.174C191.395 267.832 195.046 267.507 198.521 267.622C201.402 267.716 204.646 267.231 207.97 266.682C208.275 266.632 208.581 266.581 208.887 266.53L208.889 266.53C211.851 266.036 214.864 265.534 217.481 265.5C218.781 265.483 220.508 265.146 222.471 264.709C222.822 264.631 223.179 264.55 223.541 264.468L223.547 264.466C224.432 264.265 225.34 264.059 226.228 263.879C226.221 260.624 226.164 257.541 226.108 254.501V254.501V254.501C225.99 248.164 225.877 242.017 226.231 234.901C226.541 228.668 226.4 222.398 226.257 216.041L226.257 216.041L226.257 216.04C226.221 214.42 226.184 212.795 226.155 211.163C226.012 203.171 226.047 195.074 227.192 187.044C228.481 178.005 229.792 169.372 232.669 160.514C233.229 158.79 233.785 157.064 234.341 155.337L234.341 155.336C236.619 148.266 238.901 141.183 241.476 134.174C244.517 125.898 249.38 118.32 255.919 112.801C258.329 110.766 261.149 109.316 263.872 108.098C265.002 107.592 266.077 107.141 267.113 106.706L267.113 106.706L267.114 106.706C268.378 106.175 269.584 105.669 270.758 105.119C270.547 104.629 270.354 104.122 270.175 103.619C269.742 102.4 269.335 101.033 268.947 99.728L268.859 99.4315C268.435 98.008 268.031 96.6737 267.606 95.5452C267.163 94.3671 266.78 93.6478 266.486 93.3071C266.279 93.0667 266.138 92.7911 266.064 92.5031C264.978 92.5383 263.933 92.6283 262.823 92.724C261.416 92.8453 259.91 92.9752 258.233 92.9752C257.441 92.9752 256.632 92.9812 255.814 92.9873C254.142 92.9998 252.432 93.0126 250.755 92.9747C249.392 92.9439 247.356 92.8168 245.256 92.5013C243.295 92.2067 241.117 91.7256 239.375 90.918C236.726 93.3488 233.091 95.8335 229.843 97.3926C225.076 99.6806 219.462 100 214.711 100C211.506 100 208.141 99.3199 204.945 98.4873C203.339 98.0688 201.745 97.6033 200.216 97.1532L199.85 97.0455C198.444 96.6313 197.1 96.2356 195.815 95.892C190.327 94.4245 186.13 92.194 181.618 89.1586ZM229.822 265.709C230.077 265.373 230.229 264.954 230.229 264.5C230.229 260.859 230.166 257.509 230.105 254.25L230.105 254.248C229.988 248.001 229.878 242.088 230.226 235.099C230.544 228.708 230.399 222.254 230.255 215.882V215.882V215.881L230.255 215.88L230.255 215.879C230.219 214.277 230.183 212.68 230.154 211.091C230.012 203.132 230.054 195.303 231.152 187.609C232.443 178.558 233.715 170.24 236.473 161.749C237.04 160.005 237.6 158.266 238.159 156.532L238.159 156.53L238.16 156.529L238.16 156.529L238.16 156.529C240.435 149.465 242.686 142.479 245.23 135.554C248.077 127.806 252.583 120.851 258.499 115.857C260.476 114.188 262.887 112.921 265.506 111.749C266.443 111.33 267.445 110.908 268.46 110.48L268.46 110.48L268.46 110.48C270.146 109.77 271.868 109.046 273.388 108.292C273.564 108.205 273.722 108.095 273.859 107.968C274.146 107.916 274.426 107.8 274.678 107.616C275.57 106.966 275.767 105.715 275.116 104.822C274.773 104.35 274.38 103.506 273.944 102.28C273.548 101.164 273.17 99.8941 272.773 98.5599L272.692 98.2898C272.275 96.8872 271.832 95.4186 271.35 94.1371C270.887 92.9052 270.303 91.6072 269.514 90.6929C269.36 90.5145 269.181 90.37 268.987 90.26C268.874 89.2626 268.028 88.4876 267 88.4876C265.392 88.4876 263.926 88.614 262.541 88.7335L262.48 88.7388C261.06 88.8612 259.715 88.9752 258.233 88.9752C257.376 88.9752 256.535 88.9815 255.701 88.9878L255.701 88.9878C254.067 89.0002 252.465 89.0123 250.845 88.9757C249.616 88.948 247.752 88.8313 245.85 88.5457C243.91 88.2543 242.105 87.8115 240.888 87.2082C240.716 87.1229 240.538 87.0646 240.358 87.0318C239.566 86.2986 238.33 86.3252 237.57 87.1014C235.244 89.4793 231.425 92.1962 228.112 93.7865C224.222 95.6535 219.405 96 214.711 96C212.021 96 209.048 95.4227 205.954 94.6165C204.415 94.2157 202.876 93.7665 201.345 93.316L200.971 93.2058L200.971 93.2058L200.971 93.2057C199.576 92.7949 198.184 92.3851 196.848 92.0278C191.648 90.6372 187.715 88.497 183.132 85.3511C182.357 84.8191 181.34 84.9075 180.669 85.5069C180.305 85.4757 179.928 85.5439 179.579 85.7246C176.865 87.1323 172.135 87.778 168.75 87.778C165.18 87.778 161.591 87.5868 157.951 87.3918L157.893 87.3888C154.29 87.1958 150.634 87 147 87C146.189 87 145.49 87.4831 145.177 88.1773C144.786 88.3534 144.449 88.6558 144.233 89.0636C143.698 90.0724 143.123 91.1193 142.533 92.1938L142.533 92.1939L142.533 92.194C140.591 95.7305 138.485 99.5652 137.12 103.317C136.743 104.355 137.278 105.502 138.317 105.88C138.8 106.055 139.307 106.033 139.749 105.854C139.899 105.915 140.059 105.958 140.227 105.981C141.228 106.119 142.77 106.908 144.577 108.12C145.796 108.937 146.933 109.802 147.93 110.56C148.367 110.892 148.777 111.204 149.156 111.483C151.152 112.952 152.847 115.148 154.697 117.677C154.849 117.884 155.001 118.094 155.155 118.305L155.155 118.305C156.806 120.572 158.613 123.053 160.763 124.952C162.806 126.757 164.681 129.773 166.458 132.632L166.458 132.633L166.459 132.635C166.69 133.006 166.919 133.375 167.147 133.738C170.416 138.952 172.652 143.637 174.576 149.509C175.779 153.181 176.502 158.17 176.798 162.252C176.938 164.189 177.132 166.077 177.323 167.938C177.666 171.287 178 174.549 178 177.85V212.505C178 217.706 177.754 222.995 177.483 228.339L177.441 229.174L177.402 229.925L177.401 229.94C177.156 234.745 176.908 239.591 176.826 244.389C176.758 248.331 176.506 252.2 176.249 256.119L176.187 257.077C175.912 261.307 175.651 265.6 175.651 270C175.651 271.105 176.546 272 177.651 272C177.9 272 178.139 271.954 178.359 271.871C181.296 271.821 184.348 271.526 187.338 271.236L187.348 271.235C187.609 271.21 187.87 271.185 188.131 271.16C191.699 270.817 195.167 270.513 198.422 270.62C201.642 270.726 205.166 270.186 208.459 269.642C208.756 269.593 209.051 269.544 209.344 269.495C212.367 268.993 215.146 268.531 217.519 268.5C219.179 268.478 221.202 268.065 223.124 267.637C223.507 267.552 223.888 267.465 224.266 267.38C225.847 267.021 227.36 266.678 228.712 266.485C229.203 266.415 229.604 266.114 229.822 265.709Z"
                fill="black" />
            <path
                d="M181.421 89.2754L181.191 88.8316L181.191 88.8316L181.421 89.2754ZM181.618 89.1586L181.897 88.7437L181.618 88.556L181.339 88.7436L181.618 89.1586ZM157.737 91.3861L157.764 90.8868L157.764 90.8868L157.737 91.3861ZM157.733 91.3859L157.692 91.8842L157.699 91.8848L157.706 91.8852L157.733 91.3859ZM157.733 91.3859L157.775 90.8876L157.767 90.887L157.76 90.8866L157.733 91.3859ZM147.732 91.0027L147.736 90.5027L147.433 90.5005L147.29 90.7683L147.732 91.0027ZM145.93 94.3229L145.492 94.0823L145.93 94.3229ZM141.86 102.257L141.402 102.055L141.173 102.576L141.72 102.736L141.86 102.257ZM146.805 104.797L146.526 105.213L146.526 105.213L146.805 104.797ZM150.47 107.465L150.773 107.067L150.773 107.067L150.47 107.465ZM151.527 108.261L151.23 108.664L151.23 108.664L151.527 108.261ZM157.926 115.316L157.522 115.611L157.522 115.611L157.926 115.316ZM158.339 115.882L158.743 115.587L158.743 115.587L158.339 115.882ZM163.411 121.954L163.742 121.579L163.742 121.579L163.411 121.954ZM169.872 130.545L169.447 130.808L169.451 130.815L169.456 130.822L169.872 130.545ZM169.872 130.545L170.297 130.282L170.293 130.274L170.288 130.267L169.872 130.545ZM170.536 131.613L170.959 131.347L170.959 131.347L170.536 131.613ZM178.377 148.264L178.852 148.108L178.852 148.108L178.377 148.264ZM180.788 161.963L180.289 161.999L180.289 161.999L180.788 161.963ZM181.273 167.222L180.776 167.273L180.776 167.278L181.273 167.222ZM181.273 167.223L181.771 167.172L181.77 167.167L181.273 167.223ZM181.478 228.541L180.979 228.516L180.979 228.516L181.478 228.541ZM181.396 230.14L181.896 230.166L181.896 230.166L181.396 230.14ZM180.825 244.457L180.325 244.448L180.325 244.448L180.825 244.457ZM180.242 256.365L179.743 256.332L179.743 256.332L180.242 256.365ZM180.178 257.336L179.68 257.304L179.68 257.304L180.178 257.336ZM179.657 268.832L179.157 268.827L179.152 269.353L179.678 269.331L179.657 268.832ZM187.081 268.247L187.129 268.745L187.139 268.744L187.149 268.743L187.081 268.247ZM187.081 268.247L187.033 267.75L187.023 267.75L187.013 267.752L187.081 268.247ZM187.844 268.174L187.796 267.676L187.796 267.676L187.844 268.174ZM198.521 267.622L198.537 267.122L198.537 267.122L198.521 267.622ZM207.97 266.682L208.051 267.176L208.051 267.176L207.97 266.682ZM208.887 266.53L208.808 266.036L208.805 266.037L208.887 266.53ZM208.889 266.53L208.969 267.023L208.972 267.023L208.889 266.53ZM217.481 265.5L217.474 265L217.474 265L217.481 265.5ZM222.471 264.709L222.363 264.221L222.363 264.221L222.471 264.709ZM223.541 264.468L223.651 264.955L223.652 264.955L223.541 264.468ZM223.547 264.466L223.437 263.979L223.436 263.979L223.547 264.466ZM226.228 263.879L226.327 264.369L226.729 264.288L226.728 263.878L226.228 263.879ZM226.108 254.501H225.608L225.608 254.511L226.108 254.501ZM226.108 254.501H226.608L226.608 254.491L226.108 254.501ZM226.231 234.901L226.73 234.925L226.73 234.925L226.231 234.901ZM226.257 216.041L226.757 216.03L226.757 216.028L226.257 216.041ZM226.257 216.041L226.757 216.027L226.757 216.025L226.257 216.041ZM226.257 216.04L225.757 216.051L225.757 216.056L226.257 216.04ZM226.155 211.163L226.655 211.154L226.655 211.154L226.155 211.163ZM227.192 187.044L226.697 186.974L226.697 186.974L227.192 187.044ZM232.669 160.514L233.144 160.668L233.144 160.668L232.669 160.514ZM234.341 155.337L234.817 155.49L234.818 155.489L234.341 155.337ZM234.341 155.336L233.865 155.183L233.865 155.185L234.341 155.336ZM241.476 134.174L241.006 134.002L241.006 134.002L241.476 134.174ZM255.919 112.801L256.241 113.183L256.241 113.183L255.919 112.801ZM263.872 108.098L263.668 107.642L263.668 107.642L263.872 108.098ZM267.113 106.706L266.937 106.238L266.928 106.241L266.92 106.245L267.113 106.706ZM267.113 106.706L267.289 107.174L267.298 107.171L267.307 107.167L267.113 106.706ZM267.114 106.706L266.92 106.245L266.92 106.245L267.114 106.706ZM270.758 105.119L270.97 105.572L271.409 105.366L271.217 104.921L270.758 105.119ZM270.175 103.619L270.646 103.452L270.646 103.452L270.175 103.619ZM268.947 99.728L269.426 99.5854L269.426 99.5854L268.947 99.728ZM268.859 99.4315L269.338 99.2888L269.338 99.2888L268.859 99.4315ZM267.606 95.5452L267.138 95.7212L267.138 95.7212L267.606 95.5452ZM266.486 93.3071L266.865 92.9803L266.865 92.9803L266.486 93.3071ZM266.064 92.5031L266.548 92.3777L266.448 91.9904L266.048 92.0034L266.064 92.5031ZM262.823 92.724L262.78 92.2258L262.78 92.2258L262.823 92.724ZM255.814 92.9873L255.81 92.4873L255.814 92.9873ZM250.755 92.9747L250.766 92.4748L250.766 92.4748L250.755 92.9747ZM245.256 92.5013L245.33 92.0069L245.33 92.0069L245.256 92.5013ZM239.375 90.918L239.585 90.4643L239.282 90.3241L239.037 90.5496L239.375 90.918ZM229.843 97.3926L229.627 96.9418L229.627 96.9418L229.843 97.3926ZM204.945 98.4873L205.071 98.0035L205.071 98.0035L204.945 98.4873ZM200.216 97.1532L200.075 97.6329L200.075 97.6329L200.216 97.1532ZM199.85 97.0455L199.709 97.5251L199.709 97.5251L199.85 97.0455ZM195.815 95.892L195.944 95.409L195.944 95.409L195.815 95.892ZM229.822 265.709L229.424 265.406L229.4 265.437L229.382 265.472L229.822 265.709ZM230.105 254.25L229.605 254.256L229.605 254.259L230.105 254.25ZM230.105 254.248L230.605 254.242L230.605 254.239L230.105 254.248ZM230.226 235.099L229.727 235.075L229.727 235.075L230.226 235.099ZM230.255 215.882H229.755L229.755 215.893L230.255 215.882ZM230.255 215.881H230.755L230.755 215.869L230.255 215.881ZM230.255 215.88L229.755 215.892L229.755 215.893L230.255 215.88ZM230.255 215.879L229.755 215.891L229.755 215.891L230.255 215.879ZM230.154 211.091L230.654 211.082L230.654 211.082L230.154 211.091ZM231.152 187.609L230.657 187.538L230.657 187.538L231.152 187.609ZM236.473 161.749L235.998 161.595L235.998 161.595L236.473 161.749ZM238.159 156.532L238.635 156.685L238.635 156.685L238.159 156.532ZM238.16 156.529L238.636 156.682L238.641 156.666L238.645 156.65L238.16 156.529ZM238.16 156.529L237.684 156.375L237.679 156.391L237.675 156.407L238.16 156.529ZM245.23 135.554L245.7 135.726L245.7 135.726L245.23 135.554ZM258.499 115.857L258.177 115.475L258.177 115.475L258.499 115.857ZM265.506 111.749L265.71 112.205L265.71 112.205L265.506 111.749ZM268.46 110.48L268.654 110.941L268.655 110.941L268.46 110.48ZM268.46 110.48L268.266 110.019L268.265 110.02L268.46 110.48ZM273.388 108.292L273.61 108.74L273.61 108.74L273.388 108.292ZM273.859 107.968L273.77 107.476L273.626 107.502L273.52 107.601L273.859 107.968ZM274.678 107.616L274.383 107.212L274.383 107.212L274.678 107.616ZM275.116 104.822L274.712 105.117L274.712 105.117L275.116 104.822ZM273.944 102.28L273.473 102.448L273.473 102.448L273.944 102.28ZM272.773 98.5599L273.252 98.4172L273.252 98.4172L272.773 98.5599ZM272.692 98.2898L273.171 98.1471L273.171 98.147L272.692 98.2898ZM271.35 94.1371L271.818 93.9611L271.818 93.9611L271.35 94.1371ZM269.514 90.6929L269.135 91.0197L269.135 91.0197L269.514 90.6929ZM268.987 90.26L268.49 90.3163L268.519 90.5693L268.74 90.6949L268.987 90.26ZM262.541 88.7335L262.584 89.2316L262.584 89.2316L262.541 88.7335ZM262.48 88.7388L262.523 89.2369L262.523 89.2369L262.48 88.7388ZM255.701 88.9878L255.698 88.4879L255.697 88.4879L255.701 88.9878ZM255.701 88.9878L255.705 89.4878L255.705 89.4878L255.701 88.9878ZM250.845 88.9757L250.834 89.4756L250.834 89.4756L250.845 88.9757ZM245.85 88.5457L245.776 89.0401L245.776 89.0401L245.85 88.5457ZM240.888 87.2082L241.111 86.7602L241.111 86.7602L240.888 87.2082ZM240.358 87.0318L240.018 87.3987L240.125 87.4976L240.268 87.5237L240.358 87.0318ZM237.57 87.1014L237.213 86.7518L237.213 86.7518L237.57 87.1014ZM228.112 93.7865L228.329 94.2372L228.329 94.2372L228.112 93.7865ZM205.954 94.6165L205.827 95.1004L205.827 95.1004L205.954 94.6165ZM201.345 93.316L201.204 93.7956L201.204 93.7957L201.345 93.316ZM200.971 93.2058L200.818 93.682L200.83 93.6854L200.971 93.2058ZM200.971 93.2058L201.124 92.7296L201.111 92.7258L200.971 93.2058ZM200.971 93.2057L200.83 93.6854L200.831 93.6857L200.971 93.2057ZM196.848 92.0278L196.977 91.5447L196.977 91.5447L196.848 92.0278ZM183.132 85.3511L183.415 84.9388L183.415 84.9388L183.132 85.3511ZM180.669 85.5069L180.626 86.005L180.841 86.0234L181.002 85.8798L180.669 85.5069ZM179.579 85.7246L179.349 85.2807L179.349 85.2807L179.579 85.7246ZM157.951 87.3918L157.924 87.8911L157.924 87.8911L157.951 87.3918ZM157.893 87.3888L157.92 86.8895L157.92 86.8895L157.893 87.3888ZM145.177 88.1773L145.382 88.6331L145.554 88.5554L145.632 88.3832L145.177 88.1773ZM144.233 89.0636L144.675 89.2977L144.675 89.2977L144.233 89.0636ZM142.533 92.1938L142.095 91.9531L142.094 91.9544L142.533 92.1938ZM142.533 92.1939L142.969 92.4391L142.972 92.4334L142.533 92.1939ZM142.533 92.194L142.097 91.9488L142.095 91.9533L142.533 92.194ZM137.12 103.317L137.59 103.487L137.59 103.487L137.12 103.317ZM138.317 105.88L138.487 105.41L138.487 105.41L138.317 105.88ZM139.749 105.854L139.937 105.391L139.749 105.315L139.562 105.391L139.749 105.854ZM140.227 105.981L140.295 105.486L140.295 105.486L140.227 105.981ZM144.577 108.12L144.298 108.535L144.298 108.535L144.577 108.12ZM147.93 110.56L147.628 110.958L147.628 110.958L147.93 110.56ZM149.156 111.483L149.452 111.08L149.452 111.08L149.156 111.483ZM154.697 117.677L154.294 117.973L154.294 117.973L154.697 117.677ZM155.155 118.305L154.751 118.6L154.755 118.605L155.155 118.305ZM155.155 118.305L155.559 118.011L155.555 118.005L155.155 118.305ZM160.763 124.952L161.094 124.577L161.094 124.577L160.763 124.952ZM166.458 132.632L166.883 132.369L166.883 132.369L166.458 132.632ZM166.458 132.633L166.034 132.897L166.034 132.898L166.458 132.633ZM166.459 132.635L166.884 132.371L166.884 132.37L166.459 132.635ZM167.147 133.738L167.57 133.472L167.57 133.472L167.147 133.738ZM174.576 149.509L174.1 149.665L174.1 149.665L174.576 149.509ZM176.798 162.252L176.299 162.288L176.798 162.252ZM177.323 167.938L177.82 167.888L177.82 167.888L177.323 167.938ZM177.483 228.339L177.982 228.364L177.982 228.364L177.483 228.339ZM177.441 229.174L177.94 229.199L177.94 229.199L177.441 229.174ZM177.402 229.925L176.903 229.9L176.903 229.9L177.402 229.925ZM177.401 229.94L177.901 229.966L177.901 229.965L177.401 229.94ZM176.826 244.389L177.326 244.397L177.326 244.397L176.826 244.389ZM176.249 256.119L175.75 256.087L175.75 256.087L176.249 256.119ZM176.187 257.077L175.688 257.044L175.688 257.044L176.187 257.077ZM178.359 271.871L178.35 271.371L178.263 271.373L178.182 271.403L178.359 271.871ZM187.338 271.236L187.291 270.739L187.29 270.739L187.338 271.236ZM187.348 271.235L187.395 271.733L187.396 271.733L187.348 271.235ZM188.131 271.16L188.083 270.662L188.083 270.662L188.131 271.16ZM198.422 270.62L198.439 270.12L198.439 270.12L198.422 270.62ZM208.459 269.642L208.54 270.136L208.54 270.136L208.459 269.642ZM209.344 269.495L209.262 269.002L209.262 269.002L209.344 269.495ZM217.519 268.5L217.513 268L217.513 268L217.519 268.5ZM223.124 267.637L223.015 267.149L223.015 267.149L223.124 267.637ZM224.266 267.38L224.376 267.867L224.376 267.867L224.266 267.38ZM228.712 266.485L228.641 265.99L228.641 265.99L228.712 266.485ZM181.651 89.7193C181.737 89.6749 181.819 89.6262 181.897 89.5735L181.339 88.7436C181.292 88.7753 181.242 88.8047 181.191 88.8316L181.651 89.7193ZM168.75 92.278C172.383 92.278 177.979 91.6239 181.651 89.7193L181.191 88.8316C177.731 90.6258 172.328 91.278 168.75 91.278V92.278ZM157.71 91.8854C161.331 92.0793 165.04 92.278 168.75 92.278V91.278C165.071 91.278 161.389 91.081 157.764 90.8868L157.71 91.8854ZM157.706 91.8852L157.71 91.8854L157.764 90.8868L157.76 90.8866L157.706 91.8852ZM157.692 91.8842L157.692 91.8842L157.775 90.8876L157.775 90.8876L157.692 91.8842ZM147.728 91.5027C151.003 91.5263 154.316 91.7036 157.706 91.8852L157.76 90.8866C154.373 90.7053 151.037 90.5265 147.736 90.5027L147.728 91.5027ZM146.368 94.5634C146.974 93.4607 147.583 92.3511 148.174 91.237L147.29 90.7683C146.703 91.8751 146.098 92.9785 145.492 94.0823L146.368 94.5634ZM142.317 102.458C143.467 99.8505 144.906 97.2282 146.368 94.5634L145.492 94.0823C144.033 96.7392 142.573 99.4004 141.402 102.055L142.317 102.458ZM147.083 104.382C145.606 103.392 143.782 102.298 142 101.777L141.72 102.736C143.345 103.212 145.063 104.231 146.526 105.213L147.083 104.382ZM150.773 107.067C149.747 106.288 148.419 105.278 147.083 104.382L146.526 105.213C147.834 106.09 149.139 107.081 150.168 107.863L150.773 107.067ZM151.823 107.859C151.531 107.643 151.176 107.374 150.773 107.067L150.168 107.863C150.569 108.168 150.93 108.443 151.23 108.664L151.823 107.859ZM158.329 115.021C156.525 112.554 154.456 109.797 151.823 107.859L151.23 108.664C153.722 110.498 155.708 113.131 157.522 115.611L158.329 115.021ZM158.743 115.587C158.606 115.4 158.468 115.211 158.329 115.021L157.522 115.611C157.661 115.801 157.798 115.989 157.935 116.177L158.743 115.587ZM163.742 121.579C161.986 120.028 160.467 117.95 158.743 115.587L157.935 116.177C159.642 118.516 161.227 120.692 163.08 122.329L163.742 121.579ZM170.297 130.282C168.59 127.523 166.332 123.867 163.742 121.579L163.08 122.329C165.538 124.499 167.718 128.014 169.447 130.808L170.297 130.282ZM170.288 130.267L170.288 130.267L169.456 130.822L169.456 130.822L170.288 130.267ZM170.959 131.347C170.748 131.011 170.528 130.654 170.297 130.282L169.447 130.808C169.677 131.18 169.899 131.539 170.112 131.878L170.959 131.347ZM178.852 148.108C176.809 141.871 174.413 136.855 170.959 131.347L170.112 131.878C173.525 137.321 175.885 142.264 177.902 148.419L178.852 148.108ZM181.286 161.927C180.979 157.68 180.218 152.279 178.852 148.108L177.902 148.419C179.232 152.479 179.984 157.789 180.289 161.999L181.286 161.927ZM181.771 167.172C181.587 165.361 181.407 163.6 181.286 161.927L180.289 161.999C180.411 163.689 180.592 165.465 180.776 167.273L181.771 167.172ZM181.77 167.167L181.77 167.167L180.776 167.278L180.776 167.278L181.77 167.167ZM182.5 177.85C182.5 174.337 182.126 170.662 181.771 167.172L180.776 167.273C181.132 170.773 181.5 174.396 181.5 177.85H182.5ZM182.5 212.505V177.85H181.5V212.505H182.5ZM181.977 228.567C182.248 223.225 182.5 217.833 182.5 212.505H181.5C181.5 217.804 181.25 223.174 180.979 228.516L181.977 228.567ZM181.896 230.166C181.923 229.633 181.95 229.1 181.977 228.567L180.979 228.516C180.952 229.049 180.924 229.582 180.897 230.115L181.896 230.166ZM181.325 244.465C181.406 239.751 181.649 234.983 181.896 230.166L180.897 230.115C180.651 234.929 180.406 239.714 180.325 244.448L181.325 244.465ZM180.741 256.397C180.996 252.497 181.256 248.523 181.325 244.465L180.325 244.448C180.256 248.478 179.998 252.428 179.743 256.332L180.741 256.397ZM180.677 257.369L180.741 256.397L179.743 256.332L179.68 257.304L180.677 257.369ZM180.157 268.837C180.197 264.999 180.427 261.214 180.677 257.369L179.68 257.304C179.43 261.149 179.197 264.958 179.157 268.827L180.157 268.837ZM179.678 269.331C182.088 269.232 184.587 268.99 187.129 268.745L187.033 267.75C184.486 267.996 182.014 268.234 179.636 268.332L179.678 269.331ZM187.149 268.743L187.149 268.743L187.013 267.752L187.012 267.752L187.149 268.743ZM187.129 268.745L187.892 268.671L187.796 267.676L187.033 267.75L187.129 268.745ZM187.892 268.671C191.445 268.33 195.066 268.008 198.504 268.121L198.537 267.122C195.025 267.006 191.344 267.335 187.796 267.676L187.892 268.671ZM198.504 268.121C201.442 268.218 204.733 267.724 208.051 267.176L207.888 266.189C204.559 266.739 201.362 267.215 198.537 267.122L198.504 268.121ZM208.051 267.176C208.357 267.125 208.663 267.074 208.969 267.023L208.805 266.037C208.498 266.088 208.193 266.139 207.888 266.189L208.051 267.176ZM208.966 267.024L208.969 267.023L208.81 266.036L208.808 266.036L208.966 267.024ZM208.972 267.023C211.943 266.528 214.916 266.033 217.487 266L217.474 265C214.812 265.035 211.758 265.545 208.807 266.036L208.972 267.023ZM217.487 266C218.848 265.982 220.624 265.633 222.58 265.197L222.363 264.221C220.392 264.66 218.715 264.984 217.474 265L217.487 266ZM222.58 265.197C222.932 265.119 223.29 265.037 223.651 264.955L223.43 263.98C223.068 264.062 222.712 264.143 222.363 264.221L222.58 265.197ZM223.652 264.955L223.658 264.954L223.436 263.979L223.43 263.98L223.652 264.955ZM223.658 264.954C224.543 264.753 225.446 264.548 226.327 264.369L226.129 263.389C225.234 263.571 224.32 263.778 223.437 263.979L223.658 264.954ZM225.608 254.511C225.664 257.551 225.721 260.63 225.728 263.88L226.728 263.878C226.721 260.619 226.664 257.531 226.608 254.492L225.608 254.511ZM225.608 254.501V254.501H226.608V254.501H225.608ZM225.608 254.501V254.501H226.608V254.501H225.608ZM225.732 234.876C225.376 242.012 225.491 248.175 225.608 254.51L226.608 254.491C226.49 248.154 226.377 242.023 226.73 234.925L225.732 234.876ZM225.757 216.053C225.901 222.413 226.041 228.664 225.732 234.876L226.73 234.925C227.042 228.671 226.9 222.384 226.757 216.03L225.757 216.053ZM225.757 216.055L225.757 216.055L226.757 216.028L226.757 216.027L225.757 216.055ZM225.757 216.056L225.758 216.056L226.757 216.025L226.757 216.024L225.757 216.056ZM225.655 211.172C225.684 212.805 225.721 214.432 225.757 216.051L226.757 216.029C226.721 214.409 226.684 212.784 226.655 211.154L225.655 211.172ZM226.697 186.974C225.546 195.045 225.512 203.176 225.655 211.172L226.655 211.154C226.512 203.166 226.548 195.102 227.687 187.115L226.697 186.974ZM232.193 160.359C229.301 169.264 227.986 177.936 226.697 186.974L227.687 187.115C228.976 178.075 230.282 169.481 233.144 160.668L232.193 160.359ZM233.865 155.184C233.309 156.91 232.753 158.636 232.193 160.359L233.144 160.668C233.705 158.943 234.261 157.217 234.817 155.49L233.865 155.184ZM233.865 155.185L233.865 155.185L234.818 155.489L234.818 155.488L233.865 155.185ZM241.006 134.002C238.427 141.021 236.143 148.114 233.865 155.183L234.817 155.49C237.095 148.417 239.374 141.344 241.945 134.347L241.006 134.002ZM255.596 112.418C248.98 118.003 244.072 125.659 241.006 134.002L241.945 134.347C244.962 126.136 249.781 118.636 256.241 113.183L255.596 112.418ZM263.668 107.642C260.932 108.866 258.061 110.338 255.596 112.418L256.241 113.183C258.598 111.194 261.366 109.767 264.076 108.554L263.668 107.642ZM266.92 106.245C265.884 106.68 264.804 107.133 263.668 107.642L264.076 108.554C265.2 108.051 266.27 107.602 267.307 107.167L266.92 106.245ZM266.938 106.238L266.937 106.238L267.289 107.174L267.289 107.174L266.938 106.238ZM266.92 106.245L266.919 106.245L267.307 107.167L267.307 107.167L266.92 106.245ZM270.546 104.666C269.383 105.211 268.187 105.713 266.92 106.245L267.307 107.167C268.57 106.637 269.785 106.127 270.97 105.572L270.546 104.666ZM269.704 103.787C269.885 104.296 270.082 104.814 270.299 105.317L271.217 104.921C271.011 104.444 270.822 103.948 270.646 103.452L269.704 103.787ZM268.468 99.8706C268.855 101.173 269.266 102.553 269.704 103.787L270.646 103.452C270.218 102.247 269.815 100.894 269.426 99.5854L268.468 99.8706ZM268.379 99.5741L268.468 99.8706L269.426 99.5854L269.338 99.2888L268.379 99.5741ZM267.138 95.7212C267.556 96.8306 267.955 98.148 268.379 99.5742L269.338 99.2888C268.915 97.868 268.506 96.5168 268.074 95.3692L267.138 95.7212ZM266.108 93.6339C266.34 93.9025 266.698 94.5489 267.138 95.7212L268.074 95.3692C267.629 94.1852 267.221 93.3931 266.865 92.9803L266.108 93.6339ZM265.58 92.6285C265.673 92.9891 265.849 93.3341 266.108 93.6339L266.865 92.9803C266.708 92.7994 266.604 92.593 266.548 92.3777L265.58 92.6285ZM262.866 93.2222C263.978 93.1263 265.01 93.0375 266.08 93.0029L266.048 92.0034C264.946 92.039 263.888 92.1304 262.78 92.2258L262.866 93.2222ZM258.233 93.4752C259.935 93.4752 261.461 93.3434 262.866 93.2222L262.78 92.2258C261.372 92.3473 259.886 92.4752 258.233 92.4752V93.4752ZM255.818 93.4873C256.636 93.4812 257.444 93.4752 258.233 93.4752V92.4752C257.439 92.4752 256.628 92.4812 255.81 92.4873L255.818 93.4873ZM250.744 93.4746C252.43 93.5126 254.147 93.4998 255.818 93.4873L255.81 92.4873C254.137 92.4998 252.435 92.5125 250.766 92.4748L250.744 93.4746ZM245.182 92.9958C247.307 93.3149 249.364 93.4434 250.744 93.4746L250.766 92.4748C249.42 92.4444 247.406 92.3186 245.33 92.0069L245.182 92.9958ZM239.165 91.3716C240.972 92.2092 243.204 92.6988 245.182 92.9958L245.33 92.0069C243.385 91.7147 241.263 91.2421 239.585 90.4643L239.165 91.3716ZM230.059 97.8433C233.354 96.2622 237.029 93.7494 239.713 91.2864L239.037 90.5496C236.423 92.9483 232.829 95.4048 229.627 96.9418L230.059 97.8433ZM214.711 100.5C219.469 100.5 225.183 100.184 230.059 97.8433L229.627 96.9418C224.969 99.1773 219.455 99.5 214.711 99.5V100.5ZM204.819 98.9712C208.027 99.8071 211.442 100.5 214.711 100.5V99.5C211.57 99.5 208.254 98.8327 205.071 98.0035L204.819 98.9712ZM200.075 97.6329C201.603 98.0829 203.204 98.5504 204.819 98.9712L205.071 98.0035C203.473 97.5872 201.886 97.1237 200.357 96.6736L200.075 97.6329ZM199.709 97.5251L200.075 97.6329L200.357 96.6736L199.991 96.5658L199.709 97.5251ZM195.686 96.375C196.964 96.7168 198.301 97.1106 199.709 97.5251L199.991 96.5658C198.586 96.1521 197.236 95.7545 195.944 95.409L195.686 96.375ZM181.339 89.5734C185.881 92.6288 190.129 94.8889 195.686 96.375L195.944 95.409C190.526 93.96 186.38 91.7591 181.897 88.7437L181.339 89.5734ZM230.22 266.011C230.539 265.591 230.729 265.067 230.729 264.5H229.729C229.729 264.841 229.615 265.154 229.424 265.406L230.22 266.011ZM230.729 264.5C230.729 260.854 230.666 257.499 230.605 254.24L229.605 254.259C229.666 257.519 229.729 260.864 229.729 264.5H230.729ZM230.605 254.244L230.605 254.242L229.605 254.254L229.605 254.256L230.605 254.244ZM230.605 254.239C230.488 247.991 230.378 242.094 230.725 235.124L229.727 235.075C229.378 242.083 229.488 248.012 229.605 254.257L230.605 254.239ZM230.725 235.124C231.045 228.711 230.899 222.24 230.755 215.87L229.755 215.893C229.899 222.268 230.044 228.704 229.727 235.075L230.725 235.124ZM230.755 215.882V215.882H229.755V215.882H230.755ZM230.755 215.882V215.881H229.755V215.882H230.755ZM230.755 215.869L230.755 215.868L229.755 215.893L229.755 215.894L230.755 215.869ZM230.755 215.869L230.755 215.868L229.755 215.891L229.755 215.892L230.755 215.869ZM230.755 215.868C230.719 214.266 230.683 212.67 230.654 211.082L229.654 211.1C229.683 212.691 229.719 214.289 229.755 215.891L230.755 215.868ZM230.654 211.082C230.512 203.127 230.555 195.332 231.647 187.68L230.657 187.538C229.553 195.275 229.512 203.137 229.654 211.1L230.654 211.082ZM231.647 187.68C232.938 178.627 234.206 170.349 236.949 161.904L235.998 161.595C233.225 170.132 231.947 178.489 230.657 187.538L231.647 187.68ZM236.949 161.904C237.515 160.159 238.076 158.419 238.635 156.685L237.683 156.378C237.124 158.113 236.564 159.851 235.998 161.595L236.949 161.904ZM238.635 156.685L238.635 156.684L237.683 156.377L237.683 156.378L238.635 156.685ZM238.635 156.684L238.636 156.682L237.684 156.376L237.683 156.377L238.635 156.684ZM238.645 156.65L238.645 156.65L237.675 156.408L237.675 156.408L238.645 156.65ZM238.645 156.65L238.645 156.65L237.675 156.407L237.675 156.408L238.645 156.65ZM238.636 156.682C240.912 149.617 243.159 142.64 245.7 135.726L244.761 135.381C242.213 142.317 239.959 149.313 237.684 156.375L238.636 156.682ZM245.7 135.726C248.522 128.044 252.983 121.168 258.822 116.239L258.177 115.475C252.182 120.535 247.632 127.567 244.761 135.381L245.7 135.726ZM258.822 116.239C260.744 114.616 263.104 113.371 265.71 112.205L265.301 111.293C262.67 112.47 260.208 113.761 258.177 115.475L258.822 116.239ZM265.71 112.205C266.641 111.789 267.638 111.369 268.654 110.941L268.266 110.02C267.252 110.446 266.245 110.871 265.301 111.293L265.71 112.205ZM268.655 110.941L268.656 110.941L268.265 110.02L268.264 110.02L268.655 110.941ZM268.656 110.941L268.656 110.94L268.265 110.02L268.265 110.02L268.656 110.941ZM268.654 110.941C270.337 110.233 272.073 109.502 273.61 108.74L273.166 107.844C271.662 108.59 269.956 109.308 268.266 110.019L268.654 110.941ZM273.61 108.74C273.83 108.631 274.027 108.494 274.199 108.335L273.52 107.601C273.417 107.696 273.299 107.778 273.166 107.844L273.61 108.74ZM273.948 108.46C274.308 108.395 274.658 108.249 274.972 108.021L274.383 107.212C274.194 107.35 273.984 107.437 273.77 107.476L273.948 108.46ZM274.972 108.021C276.088 107.208 276.334 105.644 275.521 104.528L274.712 105.117C275.2 105.786 275.053 106.725 274.383 107.212L274.972 108.021ZM275.521 104.528C275.222 104.118 274.849 103.333 274.415 102.113L273.473 102.448C273.911 103.679 274.323 104.582 274.712 105.117L275.521 104.528ZM274.415 102.113C274.024 101.011 273.65 99.7548 273.252 98.4172L272.293 98.7025C272.69 100.033 273.071 101.317 273.473 102.448L274.415 102.113ZM273.252 98.4172L273.171 98.1471L272.213 98.4324L272.293 98.7025L273.252 98.4172ZM273.171 98.147C272.754 96.747 272.308 95.2617 271.818 93.9611L270.882 94.3131C271.357 95.5755 271.795 97.0273 272.213 98.4325L273.171 98.147ZM271.818 93.9611C271.352 92.7219 270.743 91.3519 269.892 90.3661L269.135 91.0197C269.863 91.8625 270.422 93.0885 270.882 94.3131L271.818 93.9611ZM269.892 90.3661C269.7 90.1438 269.477 89.9629 269.234 89.8251L268.74 90.6949C268.885 90.777 269.019 90.8852 269.135 91.0197L269.892 90.3661ZM269.484 90.2037C269.343 88.9564 268.285 87.9876 267 87.9876V88.9876C267.77 88.9876 268.406 89.5688 268.49 90.3163L269.484 90.2037ZM267 87.9876C265.368 87.9876 263.882 88.116 262.498 88.2353L262.584 89.2316C263.971 89.112 265.416 88.9876 267 88.9876V87.9876ZM262.498 88.2353L262.437 88.2406L262.523 89.2369L262.584 89.2316L262.498 88.2353ZM262.437 88.2406C261.015 88.3632 259.691 88.4752 258.233 88.4752V89.4752C259.739 89.4752 261.104 89.3592 262.523 89.2369L262.437 88.2406ZM258.233 88.4752C257.374 88.4752 256.531 88.4816 255.698 88.4879L255.705 89.4878C256.539 89.4815 257.379 89.4752 258.233 89.4752V88.4752ZM255.697 88.4879L255.697 88.4879L255.705 89.4878L255.705 89.4878L255.697 88.4879ZM255.698 88.4879C254.062 88.5002 252.468 88.5122 250.856 88.4758L250.834 89.4756C252.462 89.5123 254.072 89.5002 255.705 89.4878L255.698 88.4879ZM250.856 88.4758C249.644 88.4485 247.802 88.3331 245.924 88.0512L245.776 89.0401C247.703 89.3295 249.588 89.4475 250.834 89.4756L250.856 88.4758ZM245.924 88.0512C243.999 87.7621 242.256 87.3284 241.111 86.7602L240.666 87.6561C241.954 88.2946 243.821 88.7465 245.776 89.0401L245.924 88.0512ZM241.111 86.7602C240.896 86.654 240.673 86.581 240.448 86.5399L240.268 87.5237C240.403 87.5482 240.537 87.5918 240.666 87.6561L241.111 86.7602ZM240.698 86.6649C239.708 85.7483 238.162 85.7814 237.213 86.7518L237.928 87.4511C238.497 86.869 239.425 86.849 240.018 87.3987L240.698 86.6649ZM237.213 86.7518C234.93 89.0852 231.16 91.7689 227.896 93.3357L228.329 94.2372C231.691 92.6235 235.558 89.8734 237.928 87.4511L237.213 86.7518ZM227.896 93.3357C224.116 95.1501 219.399 95.5 214.711 95.5V96.5C219.412 96.5 224.329 96.157 228.329 94.2372L227.896 93.3357ZM214.711 95.5C212.085 95.5 209.161 94.9355 206.08 94.1327L205.827 95.1004C208.934 95.9098 211.956 96.5 214.711 96.5V95.5ZM206.08 94.1327C204.549 93.734 203.017 93.2869 201.486 92.8363L201.204 93.7957C202.734 94.2461 204.28 94.6973 205.827 95.1004L206.08 94.1327ZM201.486 92.8364L201.112 92.7262L200.83 93.6854L201.204 93.7956L201.486 92.8364ZM201.124 92.7298L201.124 92.7298L200.818 93.6818L200.818 93.6818L201.124 92.7298ZM201.111 92.7258L201.111 92.7257L200.831 93.6857L200.831 93.6858L201.111 92.7258ZM201.112 92.7261C199.718 92.3156 198.321 91.904 196.977 91.5447L196.719 92.5108C198.048 92.8662 199.433 93.2741 200.83 93.6854L201.112 92.7261ZM196.977 91.5447C191.851 90.1739 187.971 88.0659 183.415 84.9388L182.849 85.7633C187.46 88.9281 191.445 91.1005 196.719 92.5108L196.977 91.5447ZM183.415 84.9388C182.445 84.2735 181.175 84.3848 180.336 85.1339L181.002 85.8798C181.505 85.4303 182.268 85.3647 182.849 85.7633L183.415 84.9388ZM180.711 85.0087C180.256 84.9697 179.784 85.0552 179.349 85.2807L179.809 86.1684C180.071 86.0326 180.353 85.9817 180.626 86.005L180.711 85.0087ZM179.349 85.2807C178.058 85.9505 176.254 86.4529 174.331 86.7865C172.414 87.119 170.414 87.278 168.75 87.278V88.278C170.471 88.278 172.528 88.1141 174.502 87.7718C176.468 87.4307 178.386 86.9064 179.809 86.1684L179.349 85.2807ZM168.75 87.278C165.196 87.278 161.62 87.0876 157.978 86.8926L157.924 87.8911C161.563 88.086 165.165 88.278 168.75 88.278V87.278ZM157.978 86.8926L157.92 86.8895L157.867 87.888L157.924 87.8911L157.978 86.8926ZM157.92 86.8895C154.319 86.6966 150.649 86.5 147 86.5V87.5C150.618 87.5 154.261 87.6949 157.867 87.888L157.92 86.8895ZM147 86.5C145.985 86.5 145.112 87.1047 144.721 87.9714L145.632 88.3832C145.868 87.8614 146.392 87.5 147 87.5V86.5ZM144.971 87.7215C144.483 87.9416 144.061 88.3202 143.791 88.8295L144.675 89.2977C144.837 88.9914 145.089 88.7652 145.382 88.6331L144.971 87.7215ZM143.791 88.8295C143.259 89.8343 142.685 90.8779 142.095 91.9531L142.971 92.4345C143.561 91.3607 144.138 90.3104 144.675 89.2977L143.791 88.8295ZM142.094 91.9544L142.094 91.9545L142.972 92.4334L142.972 92.4332L142.094 91.9544ZM142.097 91.9488L142.097 91.9488L142.969 92.4391L142.969 92.4391L142.097 91.9488ZM142.095 91.9533C140.156 95.4825 138.03 99.3516 136.651 103.146L137.59 103.487C138.939 99.7788 141.025 95.9786 142.971 92.4346L142.095 91.9533ZM136.651 103.146C136.179 104.443 136.848 105.878 138.146 106.349L138.487 105.41C137.709 105.127 137.307 104.266 137.59 103.487L136.651 103.146ZM138.146 106.349C138.75 106.569 139.385 106.541 139.937 106.318L139.562 105.391C139.23 105.525 138.85 105.542 138.487 105.41L138.146 106.349ZM139.562 106.318C139.75 106.394 139.95 106.448 140.158 106.477L140.295 105.486C140.169 105.468 140.049 105.436 139.937 105.391L139.562 106.318ZM140.158 106.477C140.579 106.535 141.158 106.739 141.877 107.096C142.588 107.449 143.406 107.937 144.298 108.535L144.855 107.704C143.94 107.091 143.084 106.578 142.322 106.2C141.568 105.825 140.875 105.566 140.295 105.486L140.158 106.477ZM144.298 108.535C145.503 109.343 146.629 110.199 147.628 110.958L148.233 110.162C147.237 109.405 146.088 108.531 144.855 107.704L144.298 108.535ZM147.628 110.958C148.064 111.29 148.477 111.604 148.859 111.885L149.452 111.08C149.077 110.804 148.671 110.495 148.233 110.162L147.628 110.958ZM148.859 111.885C150.784 113.302 152.438 115.436 154.294 117.973L155.101 117.382C153.256 114.861 151.519 112.601 149.452 111.08L148.859 111.885ZM154.294 117.973C154.445 118.179 154.597 118.388 154.751 118.6L155.559 118.011C155.405 117.8 155.252 117.59 155.101 117.382L154.294 117.973ZM154.755 118.605L154.755 118.605L155.555 118.005L155.555 118.005L154.755 118.605ZM154.751 118.6C156.396 120.858 158.234 123.385 160.432 125.327L161.094 124.577C158.992 122.721 157.217 120.287 155.559 118.011L154.751 118.6ZM160.432 125.327C162.408 127.072 164.242 130.014 166.033 132.896L166.883 132.369C165.119 129.531 163.204 126.441 161.094 124.577L160.432 125.327ZM166.033 132.896L166.034 132.897L166.883 132.37L166.883 132.369L166.033 132.896ZM166.034 132.898L166.035 132.899L166.884 132.37L166.883 132.369L166.034 132.898ZM166.035 132.899C166.265 133.27 166.495 133.639 166.723 134.003L167.57 133.472C167.343 133.11 167.115 132.742 166.884 132.371L166.035 132.899ZM166.723 134.003C169.972 139.185 172.19 143.833 174.1 149.665L175.051 149.353C173.114 143.441 170.86 138.719 167.57 133.472L166.723 134.003ZM174.1 149.665C175.285 153.281 176.005 158.224 176.299 162.288L177.297 162.216C177 158.116 176.272 153.081 175.051 149.353L174.1 149.665ZM176.299 162.288C176.44 164.233 176.635 166.129 176.825 167.989L177.82 167.888C177.629 166.025 177.436 164.144 177.297 162.216L176.299 162.288ZM176.825 167.989C177.169 171.342 177.5 174.578 177.5 177.85H178.5C178.5 174.519 178.163 171.232 177.82 167.888L176.825 167.989ZM177.5 177.85V212.505H178.5V177.85H177.5ZM177.5 212.505C177.5 217.692 177.255 222.969 176.984 228.313L177.982 228.364C178.254 223.02 178.5 217.72 178.5 212.505H177.5ZM176.984 228.313L176.941 229.148L177.94 229.199L177.982 228.364L176.984 228.313ZM176.941 229.148L176.903 229.9L177.901 229.951L177.94 229.199L176.941 229.148ZM176.903 229.9L176.902 229.915L177.901 229.965L177.901 229.951L176.903 229.9ZM176.902 229.915C176.656 234.718 176.408 239.573 176.326 244.38L177.326 244.397C177.407 239.61 177.655 234.772 177.901 229.966L176.902 229.915ZM176.326 244.38C176.259 248.309 176.007 252.165 175.75 256.087L176.748 256.152C177.004 252.234 177.258 248.354 177.326 244.397L176.326 244.38ZM175.75 256.087L175.688 257.044L176.686 257.109L176.748 256.152L175.75 256.087ZM175.688 257.044C175.413 261.275 175.151 265.582 175.151 270H176.151C176.151 265.618 176.411 261.34 176.686 257.109L175.688 257.044ZM175.151 270C175.151 271.381 176.27 272.5 177.651 272.5V271.5C176.822 271.5 176.151 270.828 176.151 270H175.151ZM177.651 272.5C177.961 272.5 178.26 272.443 178.536 272.339L178.182 271.403C178.017 271.466 177.839 271.5 177.651 271.5V272.5ZM187.29 270.739C184.296 271.028 181.264 271.321 178.35 271.371L178.367 272.371C181.328 272.32 184.4 272.023 187.387 271.734L187.29 270.739ZM187.301 270.738L187.291 270.739L187.386 271.734L187.395 271.733L187.301 270.738ZM188.083 270.662C187.822 270.687 187.561 270.712 187.3 270.738L187.396 271.733C187.657 271.708 187.918 271.683 188.179 271.658L188.083 270.662ZM198.439 270.12C195.147 270.012 191.649 270.319 188.083 270.662L188.179 271.658C191.75 271.314 195.188 271.014 198.406 271.12L198.439 270.12ZM208.377 269.149C205.08 269.694 201.602 270.224 198.439 270.12L198.406 271.12C201.682 271.227 205.253 270.678 208.54 270.136L208.377 269.149ZM209.262 269.002C208.969 269.051 208.674 269.1 208.377 269.149L208.54 270.136C208.838 270.086 209.133 270.037 209.426 269.989L209.262 269.002ZM217.513 268C215.094 268.031 212.273 268.502 209.262 269.002L209.426 269.989C212.461 269.484 215.199 269.03 217.526 269L217.513 268ZM223.015 267.149C221.087 267.579 219.113 267.979 217.513 268L217.526 269C219.245 268.978 221.317 268.552 223.232 268.125L223.015 267.149ZM224.155 266.892C223.778 266.978 223.398 267.064 223.015 267.149L223.232 268.125C223.617 268.04 223.999 267.953 224.376 267.867L224.155 266.892ZM228.641 265.99C227.265 266.187 225.731 266.535 224.155 266.892L224.376 267.867C225.963 267.508 227.455 267.17 228.783 266.98L228.641 265.99ZM229.382 265.472C229.236 265.744 228.968 265.943 228.641 265.99L228.783 266.98C229.438 266.886 229.973 266.485 230.263 265.945L229.382 265.472Z"
                fill="black" />
        </g>
    </g>
    <g filter="url(#filter2_d_1008_36)">
        <path d="M100 122.5C100 127.067 96.6032 133.173 94 137" stroke="black" stroke-width="4"
            stroke-linecap="round" />
        <path d="M101 122C108.032 124.748 114.809 123.865 122 123.865" stroke="black" stroke-width="4"
            stroke-linecap="round" />
        <path
            d="M123 124C123.5 126 130.416 127.316 133.5 128C137.835 128.962 142 129.769 145.9 129.769C152 129.769 155.96 128.609 161 127.607"
            stroke="black" stroke-width="4" stroke-linecap="round" />
        <path
            d="M94 137C98.8418 137.518 104.216 141.629 108.875 143.269C114.44 145.227 115.159 147.861 118.482 152.191C121.683 156.363 123.82 161.606 126.504 166.121C129.196 170.647 130.769 175.79 131.669 180.914C134.128 194.908 132.427 210.324 132.427 224.463C132.427 235.308 132.427 246.154 132.427 257"
            stroke="black" stroke-width="4" stroke-linecap="round" />
        <path
            d="M175 150C172.905 152.506 170.485 157.281 169.4 160.452C168.079 164.315 164.92 168.495 164.92 172.724C164.92 183.226 161.56 193.61 161.56 204.179C161.56 212.278 161.56 244.835 161.56 253"
            stroke="black" stroke-width="4" stroke-linecap="round" />
        <path d="M132 257.5C138 257 156.024 254.07 161.5 253.5" stroke="black" stroke-width="3"
            stroke-linecap="round" />
    </g>
    <g filter="url(#filter3_d_1008_36)">
        <path
            d="M128 171C127.769 172.734 125.897 174.457 125.2 176.147C123.904 179.288 122.4 182.337 122.4 185.64C120 194.5 120 203.154 120 212C120 222.998 120 234.119 120 245"
            stroke="black" stroke-width="4" stroke-linecap="round" />
        <path
            d="M66 157C70 158.5 73.0667 161.648 73.0667 161.648C76.1513 164.489 80.4795 169 81.6667 173.031C82.5921 176.174 83.8707 179.035 85.0667 182.088C87.1653 187.445 88.0051 193.061 89 198.692C91.8655 214.911 92 231.567 92 248"
            stroke="black" stroke-width="4" stroke-linecap="round" />
        <path d="M69.5 145.5C69.1685 148.613 66.1149 153.972 64.5 156.5" stroke="black" stroke-width="4"
            stroke-linecap="round" />
        <path d="M85 146C89.8061 147.939 94.4821 150.37 99.8636 150.897C103.821 151.284 109.48 150.897 113.5 150.897"
            stroke="black" stroke-width="4" stroke-linecap="round" />
        <path d="M69.478 144.486C71.9432 144.759 74 146 77 146C80 146 82.9773 145.5 84.5 145.5" stroke="black"
            stroke-width="4" stroke-linecap="round" />
        <path d="M92.5 248.5C99.7118 247.836 112.5 246.5 120 245.5" stroke="black" stroke-width="3"
            stroke-linecap="round" />
    </g>
    <defs>
        <filter id="filter1_d_1008_36" x="132.499" y="84.4998" width="147.501" height="196" filterUnits="userSpaceOnUse"
            color-interpolation-filters="sRGB">
            <feFlood flood-opacity="0" result="BackgroundImageFix" />
            <feColorMatrix in="SourceAlpha" type="matrix" values="0 0 0 0 0 0 0 0 0 0 0 0 0 0 0 0 0 0 127 0"
                result="hardAlpha" />
            <feOffset dy="4" />
            <feGaussianBlur stdDeviation="2" />
            <feComposite in2="hardAlpha" operator="out" />
            <feColorMatrix type="matrix" values="0 0 0 0 0 0 0 0 0 0 0 0 0 0 0 0 0 0 0.25 0" />
            <feBlend mode="normal" in2="BackgroundImageFix" result="effect1_dropShadow_1008_36" />
            <feBlend mode="normal" in="SourceGraphic" in2="effect1_dropShadow_1008_36" result="shape" />
        </filter>
        <filter id="filter2_d_1008_36" x="87.9998" y="119.999" width="93.0002" height="147.001"
            filterUnits="userSpaceOnUse" color-interpolation-filters="sRGB">
            <feFlood flood-opacity="0" result="BackgroundImageFix" />
            <feColorMatrix in="SourceAlpha" type="matrix" values="0 0 0 0 0 0 0 0 0 0 0 0 0 0 0 0 0 0 127 0"
                result="hardAlpha" />
            <feOffset dy="4" />
            <feGaussianBlur stdDeviation="2" />
            <feComposite in2="hardAlpha" operator="out" />
            <feColorMatrix type="matrix" values="0 0 0 0 0 0 0 0 0 0 0 0 0 0 0 0 0 0 0.25 0" />
            <feBlend mode="normal" in2="BackgroundImageFix" result="effect1_dropShadow_1008_36" />
            <feBlend mode="normal" in="SourceGraphic" in2="effect1_dropShadow_1008_36" result="shape" />
        </filter>
        <filter id="filter3_d_1008_36" x="58.4998" y="142.485" width="75.5005" height="115.515"
            filterUnits="userSpaceOnUse" color-interpolation-filters="sRGB">
            <feFlood flood-opacity="0" result="BackgroundImageFix" />
            <feColorMatrix in="SourceAlpha" type="matrix" values="0 0 0 0 0 0 0 0 0 0 0 0 0 0 0 0 0 0 127 0"
                result="hardAlpha" />
            <feOffset dy="4" />
            <feGaussianBlur stdDeviation="2" />
            <feComposite in2="hardAlpha" operator="out" />
            <feColorMatrix type="matrix" values="0 0 0 0 0 0 0 0 0 0 0 0 0 0 0 0 0 0 0.25 0" />
            <feBlend mode="normal" in2="BackgroundImageFix" result="effect1_dropShadow_1008_36" />
            <feBlend mode="normal" in="SourceGraphic" in2="effect1_dropShadow_1008_36" result="shape" />
        </filter>
    </defs>
</svg>